<svg xmlns="http://www.w3.org/2000/svg" xmlns:xlink="http://www.w3.org/1999/xlink" width="1500" height="800" viewBox="0 0 6000 3200">
<defs>
  <clipPath id="clip270">
    <rect x="0" y="0" width="6000" height="3200"></rect>
  </clipPath>
</defs>
<path clip-path="url(#clip270)" d="M0 3200 L6000 3200 L6000 0 L0 0  Z" fill="#ffffff" fill-rule="evenodd" fill-opacity="1"></path>
<defs>
  <clipPath id="clip271">
    <rect x="1200" y="0" width="4201" height="3200"></rect>
  </clipPath>
</defs>
<path clip-path="url(#clip270)" d="M192.598 3077.36 L5952.76 3077.36 L5952.76 47.2441 L192.598 47.2441  Z" fill="#ffffff" fill-rule="evenodd" fill-opacity="1"></path>
<defs>
  <clipPath id="clip272">
    <rect x="192" y="47" width="5761" height="3031"></rect>
  </clipPath>
</defs>
<polyline clip-path="url(#clip272)" style="stroke:#000000; stroke-linecap:round; stroke-linejoin:round; stroke-width:2; stroke-opacity:0.1; fill:none" points="350.182,3077.36 350.182,47.2441 "></polyline>
<polyline clip-path="url(#clip272)" style="stroke:#000000; stroke-linecap:round; stroke-linejoin:round; stroke-width:2; stroke-opacity:0.1; fill:none" points="1710.07,3077.36 1710.07,47.2441 "></polyline>
<polyline clip-path="url(#clip272)" style="stroke:#000000; stroke-linecap:round; stroke-linejoin:round; stroke-width:2; stroke-opacity:0.1; fill:none" points="3069.96,3077.36 3069.96,47.2441 "></polyline>
<polyline clip-path="url(#clip272)" style="stroke:#000000; stroke-linecap:round; stroke-linejoin:round; stroke-width:2; stroke-opacity:0.1; fill:none" points="4429.84,3077.36 4429.84,47.2441 "></polyline>
<polyline clip-path="url(#clip272)" style="stroke:#000000; stroke-linecap:round; stroke-linejoin:round; stroke-width:2; stroke-opacity:0.1; fill:none" points="5789.73,3077.36 5789.73,47.2441 "></polyline>
<polyline clip-path="url(#clip270)" style="stroke:#000000; stroke-linecap:round; stroke-linejoin:round; stroke-width:4; stroke-opacity:1; fill:none" points="192.598,3077.36 5952.76,3077.36 "></polyline>
<polyline clip-path="url(#clip270)" style="stroke:#000000; stroke-linecap:round; stroke-linejoin:round; stroke-width:4; stroke-opacity:1; fill:none" points="350.182,3077.36 350.182,3058.46 "></polyline>
<polyline clip-path="url(#clip270)" style="stroke:#000000; stroke-linecap:round; stroke-linejoin:round; stroke-width:4; stroke-opacity:1; fill:none" points="1710.07,3077.36 1710.07,3058.46 "></polyline>
<polyline clip-path="url(#clip270)" style="stroke:#000000; stroke-linecap:round; stroke-linejoin:round; stroke-width:4; stroke-opacity:1; fill:none" points="3069.96,3077.36 3069.96,3058.46 "></polyline>
<polyline clip-path="url(#clip270)" style="stroke:#000000; stroke-linecap:round; stroke-linejoin:round; stroke-width:4; stroke-opacity:1; fill:none" points="4429.84,3077.36 4429.84,3058.46 "></polyline>
<polyline clip-path="url(#clip270)" style="stroke:#000000; stroke-linecap:round; stroke-linejoin:round; stroke-width:4; stroke-opacity:1; fill:none" points="5789.73,3077.36 5789.73,3058.46 "></polyline>
<path clip-path="url(#clip270)" d="M350.182 3137.08 Q346.571 3137.08 344.742 3140.64 Q342.937 3144.19 342.937 3151.31 Q342.937 3158.42 344.742 3161.99 Q346.571 3165.53 350.182 3165.53 Q353.816 3165.53 355.622 3161.99 Q357.45 3158.42 357.45 3151.31 Q357.45 3144.19 355.622 3140.64 Q353.816 3137.08 350.182 3137.08 M350.182 3133.37 Q355.992 3133.37 359.048 3137.98 Q362.126 3142.56 362.126 3151.31 Q362.126 3160.04 359.048 3164.65 Q355.992 3169.23 350.182 3169.23 Q344.372 3169.23 341.293 3164.65 Q338.238 3160.04 338.238 3151.31 Q338.238 3142.56 341.293 3137.98 Q344.372 3133.37 350.182 3133.37 Z" fill="#000000" fill-rule="nonzero" fill-opacity="1"></path><path clip-path="url(#clip270)" d="M1673.76 3164.62 L1690.08 3164.62 L1690.08 3168.56 L1668.14 3168.56 L1668.14 3164.62 Q1670.8 3161.87 1675.38 3157.24 Q1679.99 3152.59 1681.17 3151.25 Q1683.41 3148.72 1684.29 3146.99 Q1685.2 3145.23 1685.2 3143.54 Q1685.2 3140.78 1683.25 3139.05 Q1681.33 3137.31 1678.23 3137.31 Q1676.03 3137.31 1673.58 3138.07 Q1671.15 3138.84 1668.37 3140.39 L1668.37 3135.67 Q1671.19 3134.53 1673.65 3133.95 Q1676.1 3133.37 1678.14 3133.37 Q1683.51 3133.37 1686.7 3136.06 Q1689.9 3138.75 1689.9 3143.24 Q1689.9 3145.37 1689.09 3147.29 Q1688.3 3149.18 1686.19 3151.78 Q1685.61 3152.45 1682.51 3155.67 Q1679.41 3158.86 1673.76 3164.62 Z" fill="#000000" fill-rule="nonzero" fill-opacity="1"></path><path clip-path="url(#clip270)" d="M1699.94 3134 L1718.3 3134 L1718.3 3137.94 L1704.22 3137.94 L1704.22 3146.41 Q1705.24 3146.06 1706.26 3145.9 Q1707.28 3145.71 1708.3 3145.71 Q1714.09 3145.71 1717.47 3148.88 Q1720.85 3152.06 1720.85 3157.47 Q1720.85 3163.05 1717.37 3166.15 Q1713.9 3169.23 1707.58 3169.23 Q1705.41 3169.23 1703.14 3168.86 Q1700.89 3168.49 1698.48 3167.75 L1698.48 3163.05 Q1700.57 3164.18 1702.79 3164.74 Q1705.01 3165.3 1707.49 3165.3 Q1711.49 3165.3 1713.83 3163.19 Q1716.17 3161.08 1716.17 3157.47 Q1716.17 3153.86 1713.83 3151.75 Q1711.49 3149.65 1707.49 3149.65 Q1705.61 3149.65 1703.74 3150.06 Q1701.89 3150.48 1699.94 3151.36 L1699.94 3134 Z" fill="#000000" fill-rule="nonzero" fill-opacity="1"></path><path clip-path="url(#clip270)" d="M1740.06 3137.08 Q1736.45 3137.08 1734.62 3140.64 Q1732.81 3144.19 1732.81 3151.31 Q1732.81 3158.42 1734.62 3161.99 Q1736.45 3165.53 1740.06 3165.53 Q1743.69 3165.53 1745.5 3161.99 Q1747.33 3158.42 1747.33 3151.31 Q1747.33 3144.19 1745.5 3140.64 Q1743.69 3137.08 1740.06 3137.08 M1740.06 3133.37 Q1745.87 3133.37 1748.92 3137.98 Q1752 3142.56 1752 3151.31 Q1752 3160.04 1748.92 3164.65 Q1745.87 3169.23 1740.06 3169.23 Q1734.25 3169.23 1731.17 3164.65 Q1728.11 3160.04 1728.11 3151.31 Q1728.11 3142.56 1731.17 3137.98 Q1734.25 3133.37 1740.06 3133.37 Z" fill="#000000" fill-rule="nonzero" fill-opacity="1"></path><path clip-path="url(#clip270)" d="M3029.58 3134 L3047.93 3134 L3047.93 3137.94 L3033.86 3137.94 L3033.86 3146.41 Q3034.88 3146.06 3035.89 3145.9 Q3036.91 3145.71 3037.93 3145.71 Q3043.72 3145.71 3047.1 3148.88 Q3050.48 3152.06 3050.48 3157.47 Q3050.48 3163.05 3047.01 3166.15 Q3043.53 3169.23 3037.21 3169.23 Q3035.04 3169.23 3032.77 3168.86 Q3030.52 3168.49 3028.12 3167.75 L3028.12 3163.05 Q3030.2 3164.18 3032.42 3164.74 Q3034.64 3165.3 3037.12 3165.3 Q3041.13 3165.3 3043.46 3163.19 Q3045.8 3161.08 3045.8 3157.47 Q3045.8 3153.86 3043.46 3151.75 Q3041.13 3149.65 3037.12 3149.65 Q3035.25 3149.65 3033.37 3150.06 Q3031.52 3150.48 3029.58 3151.36 L3029.58 3134 Z" fill="#000000" fill-rule="nonzero" fill-opacity="1"></path><path clip-path="url(#clip270)" d="M3069.69 3137.08 Q3066.08 3137.08 3064.25 3140.64 Q3062.45 3144.19 3062.45 3151.31 Q3062.45 3158.42 3064.25 3161.99 Q3066.08 3165.53 3069.69 3165.53 Q3073.33 3165.53 3075.13 3161.99 Q3076.96 3158.42 3076.96 3151.31 Q3076.96 3144.19 3075.13 3140.64 Q3073.33 3137.08 3069.69 3137.08 M3069.69 3133.37 Q3075.5 3133.37 3078.56 3137.98 Q3081.64 3142.56 3081.64 3151.31 Q3081.64 3160.04 3078.56 3164.65 Q3075.5 3169.23 3069.69 3169.23 Q3063.88 3169.23 3060.8 3164.65 Q3057.75 3160.04 3057.75 3151.31 Q3057.75 3142.56 3060.8 3137.98 Q3063.88 3133.37 3069.69 3133.37 Z" fill="#000000" fill-rule="nonzero" fill-opacity="1"></path><path clip-path="url(#clip270)" d="M3099.85 3137.08 Q3096.24 3137.08 3094.41 3140.64 Q3092.61 3144.19 3092.61 3151.31 Q3092.61 3158.42 3094.41 3161.99 Q3096.24 3165.53 3099.85 3165.53 Q3103.49 3165.53 3105.29 3161.99 Q3107.12 3158.42 3107.12 3151.31 Q3107.12 3144.19 3105.29 3140.64 Q3103.49 3137.08 3099.85 3137.08 M3099.85 3133.37 Q3105.66 3133.37 3108.72 3137.98 Q3111.8 3142.56 3111.8 3151.31 Q3111.8 3160.04 3108.72 3164.65 Q3105.66 3169.23 3099.85 3169.23 Q3094.04 3169.23 3090.96 3164.65 Q3087.91 3160.04 3087.91 3151.31 Q3087.91 3142.56 3090.96 3137.98 Q3094.04 3133.37 3099.85 3133.37 Z" fill="#000000" fill-rule="nonzero" fill-opacity="1"></path><path clip-path="url(#clip270)" d="M4388.12 3134 L4410.34 3134 L4410.34 3135.99 L4397.8 3168.56 L4392.91 3168.56 L4404.72 3137.94 L4388.12 3137.94 L4388.12 3134 Z" fill="#000000" fill-rule="nonzero" fill-opacity="1"></path><path clip-path="url(#clip270)" d="M4419.51 3134 L4437.87 3134 L4437.87 3137.94 L4423.79 3137.94 L4423.79 3146.41 Q4424.81 3146.06 4425.83 3145.9 Q4426.85 3145.71 4427.87 3145.71 Q4433.65 3145.71 4437.03 3148.88 Q4440.41 3152.06 4440.41 3157.47 Q4440.41 3163.05 4436.94 3166.15 Q4433.47 3169.23 4427.15 3169.23 Q4424.97 3169.23 4422.7 3168.86 Q4420.46 3168.49 4418.05 3167.75 L4418.05 3163.05 Q4420.13 3164.18 4422.36 3164.74 Q4424.58 3165.3 4427.06 3165.3 Q4431.06 3165.3 4433.4 3163.19 Q4435.74 3161.08 4435.74 3157.47 Q4435.74 3153.86 4433.4 3151.75 Q4431.06 3149.65 4427.06 3149.65 Q4425.18 3149.65 4423.31 3150.06 Q4421.45 3150.48 4419.51 3151.36 L4419.51 3134 Z" fill="#000000" fill-rule="nonzero" fill-opacity="1"></path><path clip-path="url(#clip270)" d="M4459.62 3137.08 Q4456.01 3137.08 4454.19 3140.64 Q4452.38 3144.19 4452.38 3151.31 Q4452.38 3158.42 4454.19 3161.99 Q4456.01 3165.53 4459.62 3165.53 Q4463.26 3165.53 4465.06 3161.99 Q4466.89 3158.42 4466.89 3151.31 Q4466.89 3144.19 4465.06 3140.64 Q4463.26 3137.08 4459.62 3137.08 M4459.62 3133.37 Q4465.44 3133.37 4468.49 3137.98 Q4471.57 3142.56 4471.57 3151.31 Q4471.57 3160.04 4468.49 3164.65 Q4465.44 3169.23 4459.62 3169.23 Q4453.81 3169.23 4450.74 3164.65 Q4447.68 3160.04 4447.68 3151.31 Q4447.68 3142.56 4450.74 3137.98 Q4453.81 3133.37 4459.62 3133.37 Z" fill="#000000" fill-rule="nonzero" fill-opacity="1"></path><path clip-path="url(#clip270)" d="M5734.26 3164.62 L5741.9 3164.62 L5741.9 3138.26 L5733.59 3139.93 L5733.59 3135.67 L5741.85 3134 L5746.53 3134 L5746.53 3164.62 L5754.17 3164.62 L5754.17 3168.56 L5734.26 3168.56 L5734.26 3164.62 Z" fill="#000000" fill-rule="nonzero" fill-opacity="1"></path><path clip-path="url(#clip270)" d="M5773.61 3137.08 Q5770 3137.08 5768.17 3140.64 Q5766.36 3144.19 5766.36 3151.31 Q5766.36 3158.42 5768.17 3161.99 Q5770 3165.53 5773.61 3165.53 Q5777.24 3165.53 5779.05 3161.99 Q5780.88 3158.42 5780.88 3151.31 Q5780.88 3144.19 5779.05 3140.64 Q5777.24 3137.08 5773.61 3137.08 M5773.61 3133.37 Q5779.42 3133.37 5782.48 3137.98 Q5785.55 3142.56 5785.55 3151.31 Q5785.55 3160.04 5782.48 3164.65 Q5779.42 3169.23 5773.61 3169.23 Q5767.8 3169.23 5764.72 3164.65 Q5761.67 3160.04 5761.67 3151.31 Q5761.67 3142.56 5764.72 3137.98 Q5767.8 3133.37 5773.61 3133.37 Z" fill="#000000" fill-rule="nonzero" fill-opacity="1"></path><path clip-path="url(#clip270)" d="M5803.77 3137.08 Q5800.16 3137.08 5798.33 3140.64 Q5796.53 3144.19 5796.53 3151.31 Q5796.53 3158.42 5798.33 3161.99 Q5800.16 3165.53 5803.77 3165.53 Q5807.41 3165.53 5809.21 3161.99 Q5811.04 3158.42 5811.04 3151.31 Q5811.04 3144.19 5809.21 3140.64 Q5807.41 3137.08 5803.77 3137.08 M5803.77 3133.37 Q5809.58 3133.37 5812.64 3137.98 Q5815.72 3142.56 5815.72 3151.31 Q5815.72 3160.04 5812.64 3164.65 Q5809.58 3169.23 5803.77 3169.23 Q5797.96 3169.23 5794.88 3164.65 Q5791.83 3160.04 5791.83 3151.31 Q5791.83 3142.56 5794.88 3137.98 Q5797.96 3133.37 5803.77 3133.37 Z" fill="#000000" fill-rule="nonzero" fill-opacity="1"></path><path clip-path="url(#clip270)" d="M5833.93 3137.08 Q5830.32 3137.08 5828.49 3140.64 Q5826.69 3144.19 5826.69 3151.31 Q5826.69 3158.42 5828.49 3161.99 Q5830.32 3165.53 5833.93 3165.53 Q5837.57 3165.53 5839.37 3161.99 Q5841.2 3158.42 5841.2 3151.31 Q5841.2 3144.19 5839.37 3140.64 Q5837.57 3137.08 5833.93 3137.08 M5833.93 3133.37 Q5839.74 3133.37 5842.8 3137.98 Q5845.88 3142.56 5845.88 3151.31 Q5845.88 3160.04 5842.8 3164.65 Q5839.74 3169.23 5833.93 3169.23 Q5828.12 3169.23 5825.04 3164.65 Q5821.99 3160.04 5821.99 3151.31 Q5821.99 3142.56 5825.04 3137.98 Q5828.12 3133.37 5833.93 3133.37 Z" fill="#000000" fill-rule="nonzero" fill-opacity="1"></path><polyline clip-path="url(#clip272)" style="stroke:#000000; stroke-linecap:round; stroke-linejoin:round; stroke-width:2; stroke-opacity:0.1; fill:none" points="192.598,2991.6 5952.76,2991.6 "></polyline>
<polyline clip-path="url(#clip272)" style="stroke:#000000; stroke-linecap:round; stroke-linejoin:round; stroke-width:2; stroke-opacity:0.1; fill:none" points="192.598,2552.02 5952.76,2552.02 "></polyline>
<polyline clip-path="url(#clip272)" style="stroke:#000000; stroke-linecap:round; stroke-linejoin:round; stroke-width:2; stroke-opacity:0.1; fill:none" points="192.598,2112.44 5952.76,2112.44 "></polyline>
<polyline clip-path="url(#clip272)" style="stroke:#000000; stroke-linecap:round; stroke-linejoin:round; stroke-width:2; stroke-opacity:0.1; fill:none" points="192.598,1672.86 5952.76,1672.86 "></polyline>
<polyline clip-path="url(#clip272)" style="stroke:#000000; stroke-linecap:round; stroke-linejoin:round; stroke-width:2; stroke-opacity:0.1; fill:none" points="192.598,1233.28 5952.76,1233.28 "></polyline>
<polyline clip-path="url(#clip272)" style="stroke:#000000; stroke-linecap:round; stroke-linejoin:round; stroke-width:2; stroke-opacity:0.1; fill:none" points="192.598,793.693 5952.76,793.693 "></polyline>
<polyline clip-path="url(#clip272)" style="stroke:#000000; stroke-linecap:round; stroke-linejoin:round; stroke-width:2; stroke-opacity:0.1; fill:none" points="192.598,354.112 5952.76,354.112 "></polyline>
<polyline clip-path="url(#clip270)" style="stroke:#000000; stroke-linecap:round; stroke-linejoin:round; stroke-width:4; stroke-opacity:1; fill:none" points="192.598,3077.36 192.598,47.2441 "></polyline>
<polyline clip-path="url(#clip270)" style="stroke:#000000; stroke-linecap:round; stroke-linejoin:round; stroke-width:4; stroke-opacity:1; fill:none" points="192.598,2991.6 211.496,2991.6 "></polyline>
<polyline clip-path="url(#clip270)" style="stroke:#000000; stroke-linecap:round; stroke-linejoin:round; stroke-width:4; stroke-opacity:1; fill:none" points="192.598,2552.02 211.496,2552.02 "></polyline>
<polyline clip-path="url(#clip270)" style="stroke:#000000; stroke-linecap:round; stroke-linejoin:round; stroke-width:4; stroke-opacity:1; fill:none" points="192.598,2112.44 211.496,2112.44 "></polyline>
<polyline clip-path="url(#clip270)" style="stroke:#000000; stroke-linecap:round; stroke-linejoin:round; stroke-width:4; stroke-opacity:1; fill:none" points="192.598,1672.86 211.496,1672.86 "></polyline>
<polyline clip-path="url(#clip270)" style="stroke:#000000; stroke-linecap:round; stroke-linejoin:round; stroke-width:4; stroke-opacity:1; fill:none" points="192.598,1233.28 211.496,1233.28 "></polyline>
<polyline clip-path="url(#clip270)" style="stroke:#000000; stroke-linecap:round; stroke-linejoin:round; stroke-width:4; stroke-opacity:1; fill:none" points="192.598,793.693 211.496,793.693 "></polyline>
<polyline clip-path="url(#clip270)" style="stroke:#000000; stroke-linecap:round; stroke-linejoin:round; stroke-width:4; stroke-opacity:1; fill:none" points="192.598,354.112 211.496,354.112 "></polyline>
<path clip-path="url(#clip270)" d="M45.4226 2977.4 Q41.8115 2977.4 39.9828 2980.97 Q38.1773 2984.51 38.1773 2991.64 Q38.1773 2998.74 39.9828 3002.31 Q41.8115 3005.85 45.4226 3005.85 Q49.0569 3005.85 50.8624 3002.31 Q52.6911 2998.74 52.6911 2991.64 Q52.6911 2984.51 50.8624 2980.97 Q49.0569 2977.4 45.4226 2977.4 M45.4226 2973.7 Q51.2328 2973.7 54.2883 2978.3 Q57.367 2982.89 57.367 2991.64 Q57.367 3000.36 54.2883 3004.97 Q51.2328 3009.55 45.4226 3009.55 Q39.6125 3009.55 36.5338 3004.97 Q33.4782 3000.36 33.4782 2991.64 Q33.4782 2982.89 36.5338 2978.3 Q39.6125 2973.7 45.4226 2973.7 Z" fill="#000000" fill-rule="nonzero" fill-opacity="1"></path><path clip-path="url(#clip270)" d="M65.5845 3003 L70.4688 3003 L70.4688 3008.88 L65.5845 3008.88 L65.5845 3003 Z" fill="#000000" fill-rule="nonzero" fill-opacity="1"></path><path clip-path="url(#clip270)" d="M90.6539 2977.4 Q87.0428 2977.4 85.2141 2980.97 Q83.4085 2984.51 83.4085 2991.64 Q83.4085 2998.74 85.2141 3002.31 Q87.0428 3005.85 90.6539 3005.85 Q94.2881 3005.85 96.0936 3002.31 Q97.9223 2998.74 97.9223 2991.64 Q97.9223 2984.51 96.0936 2980.97 Q94.2881 2977.4 90.6539 2977.4 M90.6539 2973.7 Q96.464 2973.7 99.5195 2978.3 Q102.598 2982.89 102.598 2991.64 Q102.598 3000.36 99.5195 3004.97 Q96.464 3009.55 90.6539 3009.55 Q84.8437 3009.55 81.765 3004.97 Q78.7095 3000.36 78.7095 2991.64 Q78.7095 2982.89 81.765 2978.3 Q84.8437 2973.7 90.6539 2973.7 Z" fill="#000000" fill-rule="nonzero" fill-opacity="1"></path><path clip-path="url(#clip270)" d="M46.6495 2537.82 Q43.0384 2537.82 41.2097 2541.38 Q39.4041 2544.93 39.4041 2552.05 Q39.4041 2559.16 41.2097 2562.73 Q43.0384 2566.27 46.6495 2566.27 Q50.2837 2566.27 52.0892 2562.73 Q53.9179 2559.16 53.9179 2552.05 Q53.9179 2544.93 52.0892 2541.38 Q50.2837 2537.82 46.6495 2537.82 M46.6495 2534.12 Q52.4596 2534.12 55.5152 2538.72 Q58.5938 2543.3 58.5938 2552.05 Q58.5938 2560.78 55.5152 2565.39 Q52.4596 2569.97 46.6495 2569.97 Q40.8393 2569.97 37.7606 2565.39 Q34.7051 2560.78 34.7051 2552.05 Q34.7051 2543.3 37.7606 2538.72 Q40.8393 2534.12 46.6495 2534.12 Z" fill="#000000" fill-rule="nonzero" fill-opacity="1"></path><path clip-path="url(#clip270)" d="M66.8114 2563.42 L71.6956 2563.42 L71.6956 2569.3 L66.8114 2569.3 L66.8114 2563.42 Z" fill="#000000" fill-rule="nonzero" fill-opacity="1"></path><path clip-path="url(#clip270)" d="M82.6909 2565.37 L90.3298 2565.37 L90.3298 2539 L82.0196 2540.67 L82.0196 2536.41 L90.2835 2534.74 L94.9594 2534.74 L94.9594 2565.37 L102.598 2565.37 L102.598 2569.3 L82.6909 2569.3 L82.6909 2565.37 Z" fill="#000000" fill-rule="nonzero" fill-opacity="1"></path><path clip-path="url(#clip270)" d="M47.0198 2098.24 Q43.4087 2098.24 41.58 2101.8 Q39.7745 2105.34 39.7745 2112.47 Q39.7745 2119.58 41.58 2123.14 Q43.4087 2126.69 47.0198 2126.69 Q50.6541 2126.69 52.4596 2123.14 Q54.2883 2119.58 54.2883 2112.47 Q54.2883 2105.34 52.4596 2101.8 Q50.6541 2098.24 47.0198 2098.24 M47.0198 2094.53 Q52.83 2094.53 55.8855 2099.14 Q58.9642 2103.72 58.9642 2112.47 Q58.9642 2121.2 55.8855 2125.81 Q52.83 2130.39 47.0198 2130.39 Q41.2097 2130.39 38.131 2125.81 Q35.0754 2121.2 35.0754 2112.47 Q35.0754 2103.72 38.131 2099.14 Q41.2097 2094.53 47.0198 2094.53 Z" fill="#000000" fill-rule="nonzero" fill-opacity="1"></path><path clip-path="url(#clip270)" d="M67.1818 2123.84 L72.066 2123.84 L72.066 2129.72 L67.1818 2129.72 L67.1818 2123.84 Z" fill="#000000" fill-rule="nonzero" fill-opacity="1"></path><path clip-path="url(#clip270)" d="M86.2789 2125.78 L102.598 2125.78 L102.598 2129.72 L80.6539 2129.72 L80.6539 2125.78 Q83.3159 2123.03 87.8992 2118.4 Q92.5057 2113.75 93.6862 2112.4 Q95.9316 2109.88 96.8112 2108.14 Q97.714 2106.39 97.714 2104.7 Q97.714 2101.94 95.7696 2100.2 Q93.8483 2098.47 90.7464 2098.47 Q88.5474 2098.47 86.0937 2099.23 Q83.6632 2100 80.8854 2101.55 L80.8854 2096.83 Q83.7094 2095.69 86.1631 2095.11 Q88.6168 2094.53 90.6539 2094.53 Q96.0242 2094.53 99.2186 2097.22 Q102.413 2099.9 102.413 2104.39 Q102.413 2106.52 101.603 2108.45 Q100.816 2110.34 98.7094 2112.94 Q98.1307 2113.61 95.0288 2116.83 Q91.927 2120.02 86.2789 2125.78 Z" fill="#000000" fill-rule="nonzero" fill-opacity="1"></path><path clip-path="url(#clip270)" d="M46.0708 1658.66 Q42.4597 1658.66 40.631 1662.22 Q38.8254 1665.76 38.8254 1672.89 Q38.8254 1680 40.631 1683.56 Q42.4597 1687.1 46.0708 1687.1 Q49.705 1687.1 51.5105 1683.56 Q53.3392 1680 53.3392 1672.89 Q53.3392 1665.76 51.5105 1662.22 Q49.705 1658.66 46.0708 1658.66 M46.0708 1654.95 Q51.8809 1654.95 54.9365 1659.56 Q58.0151 1664.14 58.0151 1672.89 Q58.0151 1681.62 54.9365 1686.22 Q51.8809 1690.81 46.0708 1690.81 Q40.2606 1690.81 37.1819 1686.22 Q34.1264 1681.62 34.1264 1672.89 Q34.1264 1664.14 37.1819 1659.56 Q40.2606 1654.95 46.0708 1654.95 Z" fill="#000000" fill-rule="nonzero" fill-opacity="1"></path><path clip-path="url(#clip270)" d="M66.2327 1684.26 L71.1169 1684.26 L71.1169 1690.14 L66.2327 1690.14 L66.2327 1684.26 Z" fill="#000000" fill-rule="nonzero" fill-opacity="1"></path><path clip-path="url(#clip270)" d="M95.4686 1671.5 Q98.8251 1672.22 100.7 1674.49 Q102.598 1676.76 102.598 1680.09 Q102.598 1685.21 99.0797 1688.01 Q95.5612 1690.81 89.0798 1690.81 Q86.9039 1690.81 84.5891 1690.37 Q82.2974 1689.95 79.8437 1689.1 L79.8437 1684.58 Q81.7882 1685.72 84.103 1686.29 Q86.4178 1686.87 88.9409 1686.87 Q93.339 1686.87 95.6307 1685.14 Q97.9455 1683.4 97.9455 1680.09 Q97.9455 1677.04 95.7927 1675.32 Q93.6631 1673.59 89.8437 1673.59 L85.8159 1673.59 L85.8159 1669.74 L90.0289 1669.74 Q93.4779 1669.74 95.3066 1668.38 Q97.1353 1666.99 97.1353 1664.4 Q97.1353 1661.73 95.2372 1660.32 Q93.3622 1658.89 89.8437 1658.89 Q87.9224 1658.89 85.7233 1659.3 Q83.5243 1659.72 80.8854 1660.6 L80.8854 1656.43 Q83.5474 1655.69 85.8622 1655.32 Q88.2002 1654.95 90.2603 1654.95 Q95.5844 1654.95 98.6862 1657.38 Q101.788 1659.79 101.788 1663.91 Q101.788 1666.78 100.145 1668.77 Q98.501 1670.74 95.4686 1671.5 Z" fill="#000000" fill-rule="nonzero" fill-opacity="1"></path><path clip-path="url(#clip270)" d="M44.9365 1219.07 Q41.3254 1219.07 39.4967 1222.64 Q37.6912 1226.18 37.6912 1233.31 Q37.6912 1240.42 39.4967 1243.98 Q41.3254 1247.52 44.9365 1247.52 Q48.5707 1247.52 50.3763 1243.98 Q52.205 1240.42 52.205 1233.31 Q52.205 1226.18 50.3763 1222.64 Q48.5707 1219.07 44.9365 1219.07 M44.9365 1215.37 Q50.7467 1215.37 53.8022 1219.98 Q56.8809 1224.56 56.8809 1233.31 Q56.8809 1242.04 53.8022 1246.64 Q50.7467 1251.23 44.9365 1251.23 Q39.1264 1251.23 36.0477 1246.64 Q32.9921 1242.04 32.9921 1233.31 Q32.9921 1224.56 36.0477 1219.98 Q39.1264 1215.37 44.9365 1215.37 Z" fill="#000000" fill-rule="nonzero" fill-opacity="1"></path><path clip-path="url(#clip270)" d="M65.0984 1244.68 L69.9827 1244.68 L69.9827 1250.56 L65.0984 1250.56 L65.0984 1244.68 Z" fill="#000000" fill-rule="nonzero" fill-opacity="1"></path><path clip-path="url(#clip270)" d="M93.015 1220.07 L81.2095 1238.52 L93.015 1238.52 L93.015 1220.07 M91.7881 1216 L97.6677 1216 L97.6677 1238.52 L102.598 1238.52 L102.598 1242.41 L97.6677 1242.41 L97.6677 1250.56 L93.015 1250.56 L93.015 1242.41 L77.4132 1242.41 L77.4132 1237.89 L91.7881 1216 Z" fill="#000000" fill-rule="nonzero" fill-opacity="1"></path><path clip-path="url(#clip270)" d="M46.418 779.492 Q42.8069 779.492 40.9782 783.057 Q39.1726 786.599 39.1726 793.728 Q39.1726 800.835 40.9782 804.399 Q42.8069 807.941 46.418 807.941 Q50.0522 807.941 51.8578 804.399 Q53.6865 800.835 53.6865 793.728 Q53.6865 786.599 51.8578 783.057 Q50.0522 779.492 46.418 779.492 M46.418 775.788 Q52.2281 775.788 55.2837 780.395 Q58.3624 784.978 58.3624 793.728 Q58.3624 802.455 55.2837 807.061 Q52.2281 811.645 46.418 811.645 Q40.6078 811.645 37.5291 807.061 Q34.4736 802.455 34.4736 793.728 Q34.4736 784.978 37.5291 780.395 Q40.6078 775.788 46.418 775.788 Z" fill="#000000" fill-rule="nonzero" fill-opacity="1"></path><path clip-path="url(#clip270)" d="M66.5799 805.094 L71.4641 805.094 L71.4641 810.973 L66.5799 810.973 L66.5799 805.094 Z" fill="#000000" fill-rule="nonzero" fill-opacity="1"></path><path clip-path="url(#clip270)" d="M81.6956 776.413 L100.052 776.413 L100.052 780.349 L85.978 780.349 L85.978 788.821 Q86.9965 788.474 88.015 788.311 Q89.0335 788.126 90.052 788.126 Q95.839 788.126 99.2186 791.298 Q102.598 794.469 102.598 799.885 Q102.598 805.464 99.126 808.566 Q95.6538 811.645 89.3344 811.645 Q87.1585 811.645 84.89 811.274 Q82.6446 810.904 80.2372 810.163 L80.2372 805.464 Q82.3206 806.598 84.5428 807.154 Q86.765 807.71 89.2418 807.71 Q93.2464 807.71 95.5844 805.603 Q97.9223 803.497 97.9223 799.885 Q97.9223 796.274 95.5844 794.168 Q93.2464 792.061 89.2418 792.061 Q87.3668 792.061 85.4918 792.478 Q83.64 792.895 81.6956 793.774 L81.6956 776.413 Z" fill="#000000" fill-rule="nonzero" fill-opacity="1"></path><path clip-path="url(#clip270)" d="M45.2606 339.91 Q41.6495 339.91 39.8208 343.475 Q38.0152 347.017 38.0152 354.146 Q38.0152 361.253 39.8208 364.818 Q41.6495 368.359 45.2606 368.359 Q48.8948 368.359 50.7004 364.818 Q52.5291 361.253 52.5291 354.146 Q52.5291 347.017 50.7004 343.475 Q48.8948 339.91 45.2606 339.91 M45.2606 336.207 Q51.0707 336.207 54.1263 340.813 Q57.205 345.396 57.205 354.146 Q57.205 362.873 54.1263 367.48 Q51.0707 372.063 45.2606 372.063 Q39.4504 372.063 36.3717 367.48 Q33.3162 362.873 33.3162 354.146 Q33.3162 345.396 36.3717 340.813 Q39.4504 336.207 45.2606 336.207 Z" fill="#000000" fill-rule="nonzero" fill-opacity="1"></path><path clip-path="url(#clip270)" d="M65.4225 365.512 L70.3067 365.512 L70.3067 371.392 L65.4225 371.392 L65.4225 365.512 Z" fill="#000000" fill-rule="nonzero" fill-opacity="1"></path><path clip-path="url(#clip270)" d="M91.0705 352.248 Q87.9224 352.248 86.0705 354.401 Q84.2419 356.554 84.2419 360.304 Q84.2419 364.031 86.0705 366.207 Q87.9224 368.359 91.0705 368.359 Q94.2186 368.359 96.0473 366.207 Q97.8992 364.031 97.8992 360.304 Q97.8992 356.554 96.0473 354.401 Q94.2186 352.248 91.0705 352.248 M100.353 337.596 L100.353 341.855 Q98.5936 341.021 96.7881 340.582 Q95.0057 340.142 93.2464 340.142 Q88.6168 340.142 86.1631 343.267 Q83.7326 346.392 83.3854 352.711 Q84.7511 350.697 86.8113 349.633 Q88.8715 348.545 91.3483 348.545 Q96.5566 348.545 99.5658 351.716 Q102.598 354.864 102.598 360.304 Q102.598 365.628 99.4501 368.845 Q96.302 372.063 91.0705 372.063 Q85.0752 372.063 81.9039 367.48 Q78.7326 362.873 78.7326 354.146 Q78.7326 345.952 82.6215 341.091 Q86.5104 336.207 93.0612 336.207 Q94.8205 336.207 96.6029 336.554 Q98.4084 336.901 100.353 337.596 Z" fill="#000000" fill-rule="nonzero" fill-opacity="1"></path><polyline clip-path="url(#clip272)" style="stroke:#009af9; stroke-linecap:round; stroke-linejoin:round; stroke-width:4; stroke-opacity:1; fill:none" points="355.622,2991.6 361.061,2991.56 366.501,2991.34 371.94,2986.77 377.38,2974.02 382.819,2944.61 388.259,2903.99 393.698,2847.07 399.138,2782.45 404.578,2696.07 410.017,2626.31 415.457,2544.02 420.896,2463.36 426.336,2382.08 431.775,2301.77 437.215,2232.97 442.654,2150.33 448.094,2060.92 453.533,2022.94 458.973,1914.63 464.413,1850.05 469.852,1791.94 475.292,1743.59 480.731,1682.18 486.171,1616.9 491.61,1627.27 497.05,1563.93 502.489,1493.64 507.929,1501.77 513.369,1422.43 518.808,1433.37 524.248,1359.17 529.687,1361.41 535.127,1283.08 540.566,1293.72 546.006,1197.49 551.445,1199.56 556.885,1239.56 562.324,1128.48 567.764,1139.64 573.204,1142.28 578.643,1053.84 584.083,1053.18 589.522,1064.7 594.962,1072.61 600.401,974.098 605.841,993.395 611.28,993.659 616.72,996.033 622.16,877.126 627.599,888.951 633.039,896.995 638.478,912.82 643.918,932.425 649.357,949.833 654.797,813.87 660.236,825.431 665.676,824.596 671.115,833.344 676.555,849.037 681.995,859.763 687.434,864.466 692.874,732.679 698.313,737.603 703.753,750.658 709.192,751.494 714.632,764.593 720.071,760.197 725.511,799.496 730.951,811.98 736.39,797.122 741.83,641.246 747.269,649.95 752.709,641.862 758.148,676.677 763.588,676.237 769.027,689.864 774.467,706.305 779.907,711.448 785.346,727.492 790.786,728.152 796.225,752.197 801.665,749.515 807.104,562.605 812.544,561.682 817.983,591.442 823.423,588.101 828.862,596.849 834.302,599.003 839.742,606.08 845.181,604.805 850.621,625.202 856.06,649.511 861.5,651.621 866.939,645.686 872.379,671.534 877.818,677.688 883.258,699.359 888.698,701.249 894.137,468.359 899.577,479.48 905.016,498.866 910.456,500.58 915.895,512.405 921.335,512.141 926.774,530.648 932.214,534.428 937.653,530.736 943.093,550.165 948.533,553.946 953.972,558.166 959.412,567.617 964.851,562.869 970.291,579.793 975.73,586.694 981.17,590.343 986.609,601.508 992.049,607.794 997.489,614.124 1002.93,620.586 1008.37,623.619 1013.81,632.455 1019.25,662.478 1024.69,653.247 1030.13,393.454 1035.57,412.752 1041,412.312 1046.44,419.346 1051.88,414.246 1057.32,425.544 1062.76,436.489 1068.2,448.622 1073.64,445.193 1079.08,441.413 1084.52,454.688 1089.96,460.93 1095.4,471.392 1100.84,485.503 1106.28,484.228 1111.72,477.458 1117.16,486.865 1122.6,504.668 1128.04,493.459 1133.48,508.581 1138.92,516.933 1144.36,525.285 1149.8,520.977 1155.24,535.044 1160.68,540.714 1166.11,539.659 1171.55,549.813 1176.99,553.066 1182.43,558.913 1187.87,566.693 1193.31,582.65 1198.75,577.199 1204.19,583.881 1209.63,602.256 1215.07,598.299 1220.51,603.003 1225.95,600.893 1231.39,621.685 1236.83,624.323 1242.27,629.422 1247.71,645.027 1253.15,633.554 1258.59,329.231 1264.03,330.067 1269.47,330.946 1274.91,342.551 1280.35,349.232 1285.78,339.034 1291.22,350.683 1296.66,340.265 1302.1,347.518 1307.54,363.475 1312.98,373.761 1318.42,378.245 1323.86,365.409 1329.3,381.498 1334.74,392.179 1340.18,382.553 1345.62,397.147 1351.06,391.696 1356.5,394.817 1361.94,406.818 1367.38,408.576 1372.82,427.214 1378.26,413.983 1383.7,413.455 1389.14,424.313 1394.58,438.643 1400.02,434.951 1405.45,452.007 1410.89,439.83 1416.33,440.489 1421.77,454.644 1427.21,461.809 1432.65,467.7 1438.09,469.634 1443.53,474.513 1448.97,482.733 1454.41,479.349 1459.85,496.58 1465.29,492.536 1470.73,481.766 1476.17,500.624 1481.61,504.009 1487.05,516.141 1492.49,513.944 1497.93,507.482 1503.37,522.164 1508.81,524.054 1514.25,536.978 1519.69,518.383 1525.12,531.483 1530.56,552.671 1536,534.516 1541.44,539.923 1546.88,549.726 1552.32,558.913 1557.76,560.407 1563.2,562.693 1568.64,578.166 1574.08,581.727 1579.52,584.013 1584.96,568.672 1590.4,597.684 1595.84,590.782 1601.28,615.355 1606.72,605.64 1612.16,618.256 1617.6,627.532 1623.04,617.069 1628.48,618.432 1633.92,632.015 1639.36,647.489 1644.8,645.203 1650.23,630.257 1655.67,639.005 1661.11,650.126 1666.55,656.192 1671.99,650.39 1677.43,662.742 1682.87,661.995 1688.31,679.446 1693.75,663.05 1699.19,693.249 1704.63,675.358 1710.07,225.446 1715.51,276.35 1720.95,259.558 1726.39,262.855 1731.83,281.976 1737.27,280.833 1742.71,269.624 1748.15,282.768 1753.59,277.009 1759.03,294.548 1764.47,299.34 1769.9,298.988 1775.34,297.713 1780.78,297.845 1786.22,309.714 1791.66,296.922 1797.1,293.977 1802.54,309.802 1807.98,309.274 1813.42,302.856 1818.86,326.946 1824.3,322.638 1829.74,335.429 1835.18,337.583 1840.62,329.187 1846.06,331.605 1851.5,330.154 1856.94,333.671 1862.38,347.65 1867.82,343.562 1873.26,339.649 1878.7,348.837 1884.14,353.848 1889.57,357.628 1895.01,366.156 1900.45,366.112 1905.89,372.662 1911.33,368.618 1916.77,369.189 1922.21,364.046 1927.65,372.442 1933.09,374.376 1938.53,375.036 1943.97,375.915 1949.41,382.289 1954.85,380.838 1960.29,396.883 1965.73,387.784 1971.17,395.388 1976.61,392.048 1982.05,395.784 1987.49,404.444 1992.93,411.081 1998.37,411.257 2003.81,404.444 2009.24,408.004 2014.68,425.939 2020.12,429.676 2025.56,409.763 2031,420.708 2036.44,442.16 2041.88,431.346 2047.32,438.336 2052.76,428.885 2058.2,449.809 2063.64,451.127 2069.08,449.325 2074.52,445.545 2079.96,450.116 2085.4,459.304 2090.84,452.446 2096.28,455.567 2101.72,470.865 2107.16,476.491 2112.6,470.909 2118.04,468.755 2123.48,482.821 2128.92,487.085 2134.35,485.019 2139.79,492.096 2145.23,499.613 2150.67,494.426 2156.11,501.899 2161.55,497.02 2166.99,498.294 2172.43,506.251 2177.87,510.603 2183.31,487.788 2188.75,494.954 2194.19,505.723 2199.63,499.965 2205.07,501.591 2210.51,506.339 2215.95,520.405 2221.39,524.494 2226.83,525.812 2232.27,536.011 2237.71,527.834 2243.15,520.933 2248.59,529.769 2254.02,524.098 2259.46,526.823 2264.9,532.846 2270.34,539.044 2275.78,529.549 2281.22,543.703 2286.66,529.197 2292.1,539.132 2297.54,569.77 2302.98,571.045 2308.42,564.495 2313.86,574.21 2319.3,561.287 2324.74,575.221 2330.18,577.287 2335.62,583.266 2341.06,574.606 2346.5,572.144 2351.94,584.936 2357.38,577.243 2362.82,594.739 2368.26,595.442 2373.69,586.211 2379.13,589.288 2384.57,597.332 2390.01,601.332 2395.45,589.596 2400.89,598.783 2406.33,604.322 2411.77,613.948 2417.21,602.431 2422.65,607.487 2428.09,616.014 2433.53,611.663 2438.97,620.85 2444.41,622.652 2449.85,623.399 2455.29,627.004 2460.73,627.751 2466.17,623.004 2471.61,627.18 2477.05,630.521 2482.49,636.191 2487.93,638.257 2493.36,629.07 2498.8,638.785 2504.24,648.763 2509.68,644.28 2515.12,651.489 2520.56,640.411 2526,641.422 2531.44,652.939 2536.88,652.588 2542.32,648.148 2547.76,653.95 2553.2,650.873 2558.64,672.281 2564.08,676.589 2569.52,686.655 2574.96,679.534 2580.4,683.798 2585.84,684.853 2591.28,669.819 2596.72,685.468 2602.16,695.93 2607.6,678.567 2613.04,684.413 2618.47,732.987 2623.91,751.537 2629.35,750.878 2634.79,741.119 2640.23,746.922 2645.67,758.131 2651.11,748.856 2656.55,761.34 2661.99,743.493 2667.43,751.318 2672.87,756.637 2678.31,751.625 2683.75,761.868 2689.19,762.571 2694.63,766.879 2700.07,764.285 2705.51,764.681 2710.95,757.955 2716.39,758.615 2721.83,773.648 2727.27,780.726 2732.71,767.055 2738.14,768.681 2743.58,782.968 2749.02,787.847 2754.46,777.693 2759.9,781.737 2765.34,779.363 2770.78,789.166 2776.22,779.583 2781.66,795.628 2787.1,786.308 2792.54,792.199 2797.98,800.903 2803.42,793.43 2808.86,794.001 2814.3,781.033 2819.74,802.661 2825.18,808.595 2830.62,810.925 2836.06,809.299 2841.5,806.881 2846.94,812.288 2852.38,825.915 2857.81,811.936 2863.25,831.937 2868.69,826.794 2874.13,828.201 2879.57,846.048 2885.01,836.992 2890.45,841.872 2895.89,846.311 2901.33,844.685 2906.77,862.488 2912.21,841.872 2917.65,861.565 2923.09,859.411 2928.53,862.664 2933.97,855.982 2939.41,853.389 2944.85,865.653 2950.29,861.213 2955.73,859.719 2961.17,863.895 2966.61,871.631 2972.05,863.103 2977.48,869.521 2982.92,874.488 2988.36,885.434 2993.8,893.918 2999.24,887.192 3004.68,882.005 3010.12,885.61 3015.56,884.775 3021,891.984 3026.44,893.918 3031.88,900.204 3037.32,901.259 3042.76,908.6 3048.2,902.402 3053.64,898.094 3059.08,912.644 3064.52,910.666 3069.96,133.002 3075.4,321.495 3080.84,326.198 3086.28,329.451 3091.72,334.506 3097.16,331.561 3102.59,336.001 3108.03,340.704 3113.47,337.452 3118.91,336.66 3124.35,331.561 3129.79,339.254 3135.23,325.759 3140.67,343.957 3146.11,350.463 3151.55,343.738 3156.99,327.693 3162.43,353.189 3167.87,336.528 3173.31,341.232 3178.75,338.243 3184.19,342.727 3189.63,338.287 3195.07,340.177 3200.51,348.661 3205.95,345.144 3211.39,339.078 3216.83,338.902 3222.26,338.155 3227.7,335.166 3233.14,354.463 3238.58,351.958 3244.02,351.254 3249.46,343.034 3254.9,355.386 3260.34,350.639 3265.78,359.519 3271.22,363.914 3276.66,368.618 3282.1,362.991 3287.54,357.453 3292.98,370.772 3298.42,363.914 3303.86,359.519 3309.3,368.442 3314.74,361.145 3320.18,361.365 3325.62,355.958 3331.06,359.167 3336.5,362.991 3341.93,368.266 3347.37,381.542 3352.81,371.211 3358.25,374.772 3363.69,359.299 3369.13,379.871 3374.57,380.267 3380.01,367.299 3385.45,379.695 3390.89,382.069 3396.33,377.41 3401.77,384.531 3407.21,382.641 3412.65,377.717 3418.09,375.783 3423.53,372.662 3428.97,383.036 3434.41,386.113 3439.85,386.069 3445.29,396.795 3450.73,380.75 3456.17,389.586 3461.6,389.542 3467.04,396.575 3472.48,380.179 3477.92,396.268 3483.36,387.872 3488.8,396.048 3494.24,392.927 3499.68,388.707 3505.12,387.388 3510.56,411.038 3516,407.873 3521.44,414.51 3526.88,399.96 3532.32,414.071 3537.76,395.608 3543.2,400.136 3548.64,401.982 3554.08,400.707 3559.52,400.839 3564.96,424.621 3570.4,431.698 3575.84,417.367 3581.28,443.215 3586.71,432.006 3592.15,422.555 3597.59,441.632 3603.03,435.918 3608.47,440.358 3613.91,448.622 3619.35,437.456 3624.79,445.808 3630.23,435.39 3635.67,437.984 3641.11,444.929 3646.55,451.215 3651.99,432.401 3657.43,449.369 3662.87,442.468 3668.31,452.974 3673.75,438.423 3679.19,447.699 3684.63,438.643 3690.07,447.831 3695.51,450.732 3700.95,447.083 3706.38,458.688 3711.82,449.677 3717.26,449.984 3722.7,443.171 3728.14,450.864 3733.58,443.962 3739.02,458.293 3744.46,455.391 3749.9,456.314 3755.34,457.589 3760.78,463.787 3766.22,470.029 3771.66,447.655 3777.1,464.93 3782.54,476.096 3787.98,474.865 3793.42,475.656 3798.86,476.491 3804.3,472.931 3809.74,467.875 3815.18,472.403 3820.62,482.294 3826.05,478.381 3831.49,480.184 3836.93,494.69 3842.37,485.766 3847.81,475.304 3853.25,475.832 3858.69,484.623 3864.13,495.173 3869.57,474.469 3875.01,486.118 3880.45,484.711 3885.89,484.799 3891.33,487.657 3896.77,483.393 3902.21,496.316 3907.65,499.086 3913.09,486.03 3918.53,486.646 3923.97,498.382 3929.41,509.328 3934.85,504.537 3940.29,501.591 3945.72,498.207 3951.16,513.944 3956.6,498.998 3962.04,485.942 3967.48,513.284 3972.92,505.592 3978.36,498.031 3983.8,505.679 3989.24,504.185 3994.68,509.899 4000.12,523.746 4005.56,515.482 4011,515.262 4016.44,499.042 4021.88,500.448 4027.32,498.866 4032.76,493.723 4038.2,502.998 4043.64,519.482 4049.08,509.196 4054.52,515.57 4059.96,504.844 4065.4,500.141 4070.83,512.669 4076.27,509.152 4081.71,515.57 4087.15,504.668 4092.59,515.394 4098.03,525.461 4103.47,492.668 4108.91,508.625 4114.35,526.999 4119.79,510.603 4125.23,519.702 4130.67,507.877 4136.11,511.13 4141.55,519.35 4146.99,515.174 4152.43,522.603 4157.87,516.977 4163.31,523.526 4168.75,516.581 4174.19,513.768 4179.63,514.032 4185.07,518.295 4190.5,520.713 4195.94,509.372 4201.38,514.691 4206.82,519.175 4212.26,517.636 4217.7,527.615 4223.14,511.965 4228.58,519.35 4234.02,529.241 4239.46,529.373 4244.9,530.032 4250.34,532.274 4255.78,495.525 4261.22,537.197 4266.66,523.526 4272.1,540.099 4277.54,525.68 4282.98,556.012 4288.42,549.11 4293.86,558.561 4299.3,550.209 4304.74,558.957 4310.17,545.989 4315.61,558.913 4321.05,539.395 4326.49,555.484 4331.93,555.22 4337.37,534.912 4342.81,543.879 4348.25,556.583 4353.69,550.385 4359.13,565.023 4364.57,541.11 4370.01,562.385 4375.45,557.198 4380.89,546.78 4386.33,548.187 4391.77,564.452 4397.21,549.857 4402.65,560.495 4408.09,561.77 4413.53,549.154 4418.97,555.308 4424.41,561.418 4429.84,560.1 4435.28,559.308 4440.72,551.396 4446.16,555.88 4451.6,561.462 4457.04,548.055 4462.48,563.353 4467.92,565.199 4473.36,563.44 4478.8,563.748 4484.24,567.045 4489.68,554.297 4495.12,556.891 4500.56,579.134 4506,569.595 4511.44,581.859 4516.88,572.804 4522.32,587.178 4527.76,576.1 4533.2,580.936 4538.64,576.98 4544.08,568.012 4549.52,578.694 4554.95,576.276 4560.39,585.2 4565.83,572.76 4571.27,574.87 4576.71,583.661 4582.15,573.727 4587.59,577.639 4593.03,577.771 4598.47,580.98 4603.91,581.683 4609.35,586.694 4614.79,572.232 4620.23,579.925 4625.67,585.112 4631.11,586.738 4636.55,587.002 4641.99,588.585 4647.43,572.891 4652.87,592.936 4658.31,571.133 4663.75,580.364 4669.19,580.408 4674.62,608.322 4680.06,594.607 4685.5,591.881 4690.94,601.245 4696.38,608.19 4701.82,585.683 4707.26,588.541 4712.7,586.431 4718.14,596.013 4723.58,594.827 4729.02,583.925 4734.46,595.442 4739.9,590.563 4745.34,598.343 4750.78,605.684 4756.22,588.936 4761.66,593.464 4767.1,589.024 4772.54,691.666 4777.98,688.018 4783.42,678.215 4788.86,684.15 4794.29,681.952 4799.73,694.128 4805.17,690.963 4810.61,690.963 4816.05,689.864 4821.49,680.941 4826.93,696.678 4832.37,693.601 4837.81,680.237 4843.25,688.018 4848.69,682.128 4854.13,694.875 4859.57,678.787 4865.01,682.787 4870.45,695.711 4875.89,695.051 4881.33,685.644 4886.77,690.743 4892.21,698.48 4897.65,692.502 4903.09,702.172 4908.53,707.491 4913.96,684.853 4919.4,685.073 4924.84,703.227 4930.28,706.656 4935.72,686.831 4941.16,698.92 4946.6,693.82 4952.04,692.106 4957.48,697.952 4962.92,704.107 4968.36,697.865 4973.8,720.635 4979.24,713.953 4984.68,704.37 4990.12,704.942 4995.56,710.349 5001,708.063 5006.44,711.228 5011.88,707.316 5017.32,715.624 5022.76,707.272 5028.2,699.359 5033.64,713.206 5039.07,714.437 5044.51,720.547 5049.95,705.118 5055.39,711.755 5060.83,713.821 5066.27,707.931 5071.71,711.228 5077.15,712.722 5082.59,710.832 5088.03,712.063 5093.47,725.514 5098.91,722.745 5104.35,717.602 5109.79,725.778 5115.23,719.052 5120.67,720.239 5126.11,731.493 5131.55,712.942 5136.99,717.206 5142.43,717.162 5147.87,718.833 5153.31,725.382 5158.74,725.91 5164.18,719.272 5169.62,726.393 5175.06,733.559 5180.5,722.393 5185.94,724.943 5191.38,725.69 5196.82,713.118 5202.26,726.745 5207.7,725.294 5213.14,727.185 5218.58,730.613 5224.02,715.272 5229.46,738.614 5234.9,720.591 5240.34,720.503 5245.78,734.745 5251.22,733.119 5256.66,716.151 5262.1,723.36 5267.54,723.8 5272.98,733.559 5278.41,728.416 5283.85,782.616 5289.29,786.572 5294.73,782.748 5300.17,765.121 5305.61,786.133 5311.05,773.736 5316.49,775.011 5321.93,783.539 5327.37,784.286 5332.81,770.088 5338.25,766.967 5343.69,782.704 5349.13,797.298 5354.57,779.891 5360.01,785.737 5365.45,785.385 5370.89,788.243 5376.33,786.045 5381.77,778.792 5387.21,784.858 5392.65,772.242 5398.08,772.725 5403.52,784.682 5408.96,788.33 5414.4,776.418 5419.84,790.265 5425.28,782.088 5430.72,787.891 5436.16,797.913 5441.6,789.781 5447.04,792.814 5452.48,782.308 5457.92,775.099 5463.36,785.429 5468.8,790.397 5474.24,793.562 5479.68,794.924 5485.12,796.551 5490.56,797.474 5496,795.232 5501.44,793.078 5506.88,793.21 5512.32,796.067 5517.76,791.803 5523.19,791.276 5528.63,792.902 5534.07,782.396 5539.51,815.936 5544.95,819.453 5550.39,812.244 5555.83,821.431 5561.27,821.343 5566.71,810.749 5572.15,820.2 5577.59,809.826 5583.03,809.738 5588.47,824.464 5593.91,816.727 5599.35,809.606 5604.79,817.695 5610.23,816.42 5615.67,832.508 5621.11,825.343 5626.55,829.3 5631.99,824.86 5637.43,819.892 5642.86,814.661 5648.3,831.146 5653.74,824.596 5659.18,834.487 5664.62,835.102 5670.06,825.827 5675.5,836.113 5680.94,840.377 5686.38,836.728 5691.82,835.805 5697.26,828.904 5702.7,830.75 5708.14,848.289 5713.58,842.795 5719.02,846.619 5724.46,827.849 5729.9,833.607 5735.34,843.278 5740.78,848.773 5746.22,853.213 5751.66,835.322 5757.1,849.3 5762.53,837.52 5767.97,847.718 5773.41,848.465 5778.85,841.212 5784.29,840.729 5789.73,852.949 "></polyline>
<polyline clip-path="url(#clip272)" style="stroke:#e26f46; stroke-linecap:round; stroke-linejoin:round; stroke-width:4; stroke-opacity:1; fill:none" points="355.622,2991.6 361.061,2991.6 366.501,2989.54 371.94,2979.65 377.38,2953.89 382.819,2917.97 388.259,2866.28 393.698,2801.61 399.138,2737.04 404.578,2670.62 410.017,2603.67 415.457,2528.81 420.896,2462.83 426.336,2397.29 431.775,2322.6 437.215,2269.98 442.654,2207.78 448.094,2152.48 453.533,2087.87 458.973,2042.72 464.413,1995.16 469.852,1938.06 475.292,1906.32 480.731,1850.58 486.171,1799.98 491.61,1777.57 497.05,1739.32 502.489,1700.99 507.929,1668.55 513.369,1632.64 518.808,1601.82 524.248,1563.93 529.687,1548.54 535.127,1509.68 540.566,1484.32 546.006,1463.66 551.445,1416.05 556.885,1409.86 562.324,1407.13 567.764,1357.72 573.204,1343.65 578.643,1319.65 584.083,1300 589.522,1272.97 594.962,1261.89 600.401,1255.12 605.841,1238.46 611.28,1201.84 616.72,1194.86 622.16,1184.26 627.599,1169.45 633.039,1167.21 638.478,1145.49 643.918,1127.42 649.357,1113.97 654.797,1099.55 660.236,1087.77 665.676,1082.06 671.115,1080.92 676.555,1066.5 681.995,1061 687.434,1027.73 692.874,1030.01 698.313,1017 703.753,1002.58 709.192,1002.54 714.632,986.01 720.071,979.812 725.511,983.769 730.951,970.713 736.39,959.592 741.83,939.854 747.269,940.162 752.709,918.315 758.148,920.073 763.588,917.787 769.027,900.336 774.467,878.401 779.907,887.5 785.346,897.83 790.786,878.533 796.225,870.312 801.665,887.368 807.104,882.313 812.544,859.235 817.983,869.829 823.423,847.762 828.862,830.442 834.302,837.827 839.742,825.607 845.181,812.464 850.621,802.309 856.06,808.463 861.5,807.057 866.939,808.112 872.379,809.87 877.818,795.672 883.258,801.914 888.698,798.793 894.137,791.539 899.577,792.77 905.016,785.209 910.456,794.089 915.895,796.199 921.335,790.44 926.774,786.528 932.214,774.176 937.653,758.879 943.093,758.879 948.533,740.24 953.972,729.075 959.412,754.307 964.851,739.625 970.291,721.734 975.73,724.767 981.17,731.844 986.609,725.998 992.049,741.251 997.489,698.128 1002.93,708.854 1008.37,711.052 1013.81,715.36 1019.25,713.03 1024.69,693.469 1030.13,690.524 1035.57,696.81 1041,693.689 1046.44,704.634 1051.88,712.151 1057.32,713.03 1062.76,689.161 1068.2,696.985 1073.64,692.546 1079.08,696.458 1084.52,706.612 1089.96,708.678 1095.4,718.921 1100.84,724.635 1106.28,715.58 1111.72,719.536 1117.16,719.756 1122.6,720.899 1128.04,714.041 1133.48,712.986 1138.92,643.708 1144.36,650.741 1149.8,656.983 1155.24,670.039 1160.68,653.818 1166.11,662.478 1171.55,666.434 1176.99,672.061 1182.43,685.952 1187.87,618.388 1193.31,614.652 1198.75,613.069 1204.19,608.849 1209.63,628.718 1215.07,630.213 1220.51,622.696 1225.95,638.829 1231.39,616.894 1236.83,634.169 1242.27,649.686 1247.71,627.575 1253.15,638.565 1258.59,603.618 1264.03,607.97 1269.47,598.211 1274.91,611.794 1280.35,615.443 1285.78,626.564 1291.22,615.135 1296.66,611.135 1302.1,611.531 1307.54,627.795 1312.98,637.598 1318.42,630.96 1323.86,636.455 1329.3,642.082 1334.74,648.5 1340.18,655.049 1345.62,647.005 1351.06,636.235 1356.5,659.665 1361.94,611.443 1367.38,627.751 1372.82,636.367 1378.26,629.993 1383.7,633.73 1389.14,639.136 1394.58,642.741 1400.02,638.125 1405.45,648.456 1410.89,656.588 1416.33,655.137 1421.77,649.994 1427.21,660.412 1432.65,657.159 1438.09,656.06 1443.53,653.423 1448.97,660.324 1454.41,671.226 1459.85,681.073 1465.29,665.687 1470.73,671.094 1476.17,676.984 1481.61,681.468 1487.05,680.018 1492.49,701.469 1497.93,691.403 1503.37,686.391 1508.81,691.315 1514.25,702.26 1519.69,695.271 1525.12,711.931 1530.56,701.117 1536,715.668 1541.44,720.459 1546.88,730.569 1552.32,725.866 1557.76,723.053 1563.2,722.305 1568.64,732.46 1574.08,534.56 1579.52,536.494 1584.96,540.362 1590.4,540.362 1595.84,544.714 1601.28,545.462 1606.72,543.615 1612.16,549.506 1617.6,542.516 1623.04,525.241 1628.48,535.835 1633.92,518.867 1639.36,533.901 1644.8,535.044 1650.23,533.109 1655.67,536.714 1661.11,538.428 1666.55,538.912 1671.99,541.549 1677.43,558.869 1682.87,553.242 1688.31,544.626 1693.75,549.198 1699.19,556.275 1704.63,565.111 1710.07,570.562 1715.51,558.078 1720.95,577.595 1726.39,563.836 1731.83,568.803 1737.27,568.715 1742.71,586.475 1748.15,570.21 1753.59,580.452 1759.03,586.519 1764.47,586.167 1769.9,591.178 1775.34,592.849 1780.78,593.728 1786.22,601.025 1791.66,596.893 1797.1,599.31 1802.54,604.849 1807.98,584.452 1813.42,612.19 1818.86,587.486 1824.3,599.618 1829.74,616.85 1835.18,606.871 1840.62,510.691 1846.06,504.932 1851.5,502.251 1856.94,513.064 1862.38,512.097 1867.82,520.274 1873.26,511.614 1878.7,509.152 1884.14,496.976 1889.57,523.746 1895.01,519.394 1900.45,537.197 1905.89,543.747 1911.33,527.307 1916.77,533.461 1922.21,550.824 1927.65,547.879 1933.09,547.703 1938.53,562.649 1943.97,557.99 1949.41,565.155 1954.85,559.177 1960.29,561.33 1965.73,560.1 1971.17,569.375 1976.61,561.418 1982.05,575.441 1987.49,576.716 1992.93,562.298 1998.37,562.737 2003.81,583.002 2009.24,579.265 2014.68,580.496 2020.12,572.979 2025.56,581.288 2031,582.299 2036.44,577.155 2041.88,600.233 2047.32,612.762 2052.76,623.312 2058.2,626.257 2063.64,615.487 2069.08,628.103 2074.52,628.191 2079.96,618.74 2085.4,622.3 2090.84,635.752 2096.28,630.609 2101.72,619.883 2107.16,633.774 2112.6,642.697 2118.04,631.488 2123.48,640.323 2128.92,635.708 2134.35,644.543 2139.79,649.203 2145.23,654.39 2150.67,657.379 2156.11,661.379 2161.55,641.906 2166.99,662.434 2172.43,660.984 2177.87,672.896 2183.31,657.467 2188.75,655.797 2194.19,658.126 2199.63,654.478 2205.07,668.017 2210.51,672.237 2215.95,675.929 2221.39,675.534 2226.83,682.699 2232.27,674.523 2237.71,675.885 2243.15,673.292 2248.59,678.875 2254.02,687.051 2259.46,685.073 2264.9,694.656 2270.34,679.974 2275.78,677.072 2281.22,690.699 2286.66,715.975 2292.1,701.293 2297.54,706.568 2302.98,703.843 2308.42,722.042 2313.86,705.953 2319.3,712.547 2324.74,716.151 2330.18,715.931 2335.62,718.877 2341.06,731.361 2346.5,710.393 2351.94,735.449 2357.38,747.054 2362.82,717.118 2368.26,735.537 2373.69,722.789 2379.13,738.262 2384.57,736.196 2390.01,739.669 2395.45,738.174 2400.89,740.24 2406.33,750.087 2411.77,743.845 2417.21,748.812 2422.65,762.044 2428.09,758.351 2433.53,748.46 2438.97,760.813 2444.41,763.802 2449.85,765.736 2455.29,764.241 2460.73,764.725 2466.17,748.197 2471.61,768.417 2477.05,776.198 2482.49,763.846 2487.93,773.429 2493.36,762.615 2498.8,764.153 2504.24,765.648 2509.68,759.977 2515.12,766.395 2520.56,761.912 2526,770 2531.44,774.703 2536.88,757.56 2542.32,766.571 2547.76,775.671 2553.2,773.077 2558.64,774.659 2564.08,780.814 2569.52,783.143 2574.96,782.792 2580.4,785.473 2585.84,792.243 2591.28,799.364 2596.72,794.573 2602.16,786.704 2607.6,789.561 2613.04,790.353 2618.47,790.221 2623.91,797.781 2629.35,802.881 2634.79,808.683 2640.23,818.574 2645.67,811.452 2651.11,816.684 2656.55,810.485 2661.99,805.694 2667.43,805.298 2672.87,814.925 2678.31,817.958 2683.75,830.398 2689.19,819.805 2694.63,827.453 2700.07,826.53 2705.51,844.553 2710.95,844.201 2716.39,846.751 2721.83,840.553 2727.27,840.948 2732.71,839.893 2738.14,823.321 2743.58,861.829 2749.02,851.235 2754.46,851.63 2759.9,865.741 2765.34,859.191 2770.78,850.927 2776.22,863.895 2781.66,851.806 2787.1,847.059 2792.54,865.257 2797.98,849.476 2803.42,860.246 2808.86,863.103 2814.3,856.29 2819.74,858.971 2825.18,858.136 2830.62,869.389 2836.06,877.302 2841.5,860.378 2846.94,871.543 2852.38,864.994 2857.81,866.049 2863.25,876.73 2868.69,871.411 2874.13,884.423 2879.57,875.895 2885.01,881.961 2890.45,876.247 2895.89,883.324 2901.33,875.456 2906.77,874.313 2912.21,906.358 2917.65,925.48 2923.09,928.249 2928.53,923.018 2933.97,916.732 2939.41,923.546 2944.85,940.602 2950.29,944.47 2955.73,957.394 2961.17,945.833 2966.61,957.745 2972.05,952.294 2977.48,944.558 2982.92,954.624 2988.36,947.371 2993.8,944.997 2999.24,955.196 3004.68,948.646 3010.12,949.261 3015.56,948.602 3021,958.537 3026.44,957.569 3031.88,958.844 3037.32,963.46 3042.76,966.097 3048.2,976.867 3053.64,952.646 3059.08,955.767 3064.52,961.658 3069.96,287.603 3075.4,289.581 3080.84,287.207 3086.28,303.076 3091.72,299.691 3097.16,308.835 3102.59,302.109 3108.03,292.482 3113.47,302.505 3118.91,303.384 3124.35,310.989 3129.79,313.011 3135.23,301.098 3140.67,307.648 3146.11,305.934 3151.55,306.505 3156.99,313.275 3162.43,311.912 3167.87,313.362 3173.31,297.406 3178.75,307.252 3184.19,308.263 3189.63,311.34 3195.07,326.77 3200.51,341.715 3205.95,329.275 3211.39,342.507 3216.83,326.198 3222.26,321.802 3227.7,338.067 3233.14,322.55 3238.58,328.044 3244.02,326.154 3249.46,334.418 3254.9,334.55 3260.34,336.045 3265.78,338.375 3271.22,340.748 3276.66,343.869 3282.1,342.199 3287.54,343.562 3292.98,338.419 3298.42,341.803 3303.86,343.342 3309.3,333.803 3314.74,341.759 3320.18,341.672 3325.62,362.903 3331.06,350.639 3336.5,352.705 3341.93,346.815 3347.37,361.233 3352.81,350.815 3358.25,351.958 3363.69,368.09 3369.13,356.793 3374.57,361.848 3380.01,356.398 3385.45,349.408 3390.89,355.343 3396.33,353.54 3401.77,356.178 3407.21,348.969 3412.65,360.09 3418.09,352.485 3423.53,376.267 3428.97,365.497 3434.41,365.541 3439.85,349.892 3445.29,364.662 3450.73,372.838 3456.17,360.749 3461.6,356.266 3467.04,377.937 3472.48,363.343 3477.92,364.837 3483.36,377.497 3488.8,365.629 3494.24,380.223 3499.68,367.607 3505.12,376.75 3510.56,357.321 3516,369.673 3521.44,372.838 3526.88,370.816 3532.32,372.486 3537.76,381.454 3543.2,364.046 3548.64,368.618 3554.08,366.991 3559.52,374.464 3564.96,386.904 3570.4,381.41 3575.84,370.86 3581.28,374.948 3586.71,375.563 3592.15,383.168 3597.59,373.673 3603.03,389.806 3608.47,377.893 3613.91,365.673 3619.35,377.19 3624.79,380.267 3630.23,379.783 3635.67,372.706 3641.11,374.596 3646.55,376.882 3651.99,378.157 3657.43,376.926 3662.87,383.783 3668.31,383.256 3673.75,379.827 3679.19,382.333 3684.63,376.882 3690.07,370.64 3695.51,385.102 3700.95,377.366 3706.38,379.783 3711.82,383.036 3717.26,381.893 3722.7,382.904 3728.14,377.497 3733.58,392.443 3739.02,381.629 3744.46,386.069 3749.9,385.806 3755.34,373.673 3760.78,382.86 3766.22,396.795 3771.66,385.102 3777.1,391.256 3782.54,402.642 3787.98,389.938 3793.42,398.773 3798.86,402.861 3804.3,407.609 3809.74,414.642 3815.18,392.355 3820.62,408.752 3826.05,420.225 3831.49,429.016 3836.93,422.115 3842.37,422.027 3847.81,433.72 3853.25,420.357 3858.69,429.588 3864.13,435.83 3869.57,435.478 3875.01,434.555 3880.45,431.742 3885.89,475.7 3891.33,465.018 3896.77,473.15 3902.21,453.545 3907.65,464.315 3913.09,461.414 3918.53,469.634 3923.97,461.809 3929.41,471.216 3934.85,463.216 3940.29,452.798 3945.72,462.337 3951.16,465.59 3956.6,465.634 3962.04,474.513 3967.48,471.7 3972.92,480.535 3978.36,479.392 3983.8,466.82 3989.24,473.15 3994.68,486.997 4000.12,481.722 4005.56,470.425 4011,472.579 4016.44,477.986 4021.88,472.403 4027.32,473.546 4032.76,477.502 4038.2,474.689 4043.64,473.722 4049.08,469.766 4054.52,474.601 4059.96,482.118 4065.4,470.952 4070.83,473.59 4076.27,472.711 4081.71,483.7 4087.15,482.645 4092.59,477.898 4098.03,593.991 4103.47,581.375 4108.91,592.892 4114.35,583.134 4119.79,588.629 4125.23,594.255 4130.67,594.563 4136.11,574.298 4141.55,580.804 4146.99,594.563 4152.43,586.87 4157.87,597.86 4163.31,585.156 4168.75,590.739 4174.19,592.936 4179.63,590.255 4185.07,587.881 4190.5,591.266 4195.94,602.695 4201.38,606.519 4206.82,594.211 4212.26,600.453 4217.7,590.958 4223.14,594.211 4228.58,605.64 4234.02,596.321 4239.46,589.947 4244.9,610.52 4250.34,594.519 4255.78,602.959 4261.22,599.135 4266.66,608.717 4272.1,595.838 4277.54,606.563 4282.98,604.014 4288.42,604.278 4293.86,599.398 4299.3,604.849 4304.74,602.607 4310.17,602.651 4315.61,605.421 4321.05,617.685 4326.49,604.453 4331.93,600.453 4337.37,615.003 4342.81,613.157 4348.25,600.541 4353.69,600.849 4359.13,618.08 4364.57,614.784 4370.01,627.356 4375.45,627.444 4380.89,629.817 4386.33,622.081 4391.77,630.828 4397.21,630.345 4402.65,625.729 4408.09,625.861 4413.53,632.455 4418.97,627.839 4424.41,629.993 4429.84,630.169 4435.28,631.883 4440.72,622.652 4446.16,626.784 4451.6,626.608 4457.04,625.246 4462.48,632.059 4467.92,618.608 4473.36,625.334 4478.8,624.147 4484.24,637.29 4489.68,628.455 4495.12,620.586 4500.56,633.949 4506,629.202 4511.44,634.037 4516.88,635.092 4522.32,639.092 4527.76,622.74 4533.2,609.553 4538.64,626.74 4544.08,632.191 4549.52,636.807 4554.95,635.092 4560.39,643.928 4565.83,635.796 4571.27,633.993 4576.71,639.664 4582.15,631.576 4587.59,636.499 4593.03,643.884 4598.47,635.356 4603.91,632.806 4609.35,652.148 4614.79,622.388 4620.23,659.401 4625.67,663.401 4631.11,673.951 4636.55,667.709 4641.99,664.632 4647.43,666.874 4652.87,655.049 4658.31,669.16 4663.75,670.742 4669.19,675.622 4674.62,665.028 4680.06,668.632 4685.5,661.335 4690.94,667.314 4696.38,667.446 4701.82,672.457 4707.26,672.017 4712.7,657.775 4718.14,657.907 4723.58,674.523 4729.02,654.698 4734.46,669.468 4739.9,680.985 4745.34,669.951 4750.78,658.786 4756.22,680.413 4761.66,676.369 4767.1,683.71 4772.54,672.501 4777.98,684.853 4783.42,668.676 4788.86,673.028 4794.29,691.051 4799.73,673.204 4805.17,689.996 4810.61,680.325 4816.05,677.908 4821.49,674.215 4826.93,694.7 4832.37,674.567 4837.81,684.897 4843.25,680.413 4848.69,677.38 4854.13,682.611 4859.57,679.71 4865.01,680.677 4870.45,675.49 4875.89,691.93 4881.33,685.82 4886.77,683.534 4892.21,677.6 4897.65,692.106 4903.09,688.721 4908.53,675.314 4913.96,688.721 4919.4,667.885 4924.84,687.71 4930.28,684.809 4935.72,682.172 4941.16,671.402 4946.6,666.522 4952.04,698.876 4957.48,687.974 4962.92,661.028 4968.36,681.468 4973.8,692.106 4979.24,687.446 4984.68,675.138 4990.12,688.282 4995.56,683.974 5001,698.876 5006.44,701.249 5011.88,690.787 5017.32,683.051 5022.76,697.205 5028.2,695.579 5033.64,707.623 5039.07,693.029 5044.51,697.029 5049.95,694.788 5055.39,702.48 5060.83,704.854 5066.27,703.711 5071.71,711.008 5077.15,710.612 5082.59,693.425 5088.03,694.919 5093.47,691.71 5098.91,702.172 5104.35,702.348 5109.79,698.084 5115.23,705.777 5120.67,695.579 5126.11,716.019 5131.55,693.82 5136.99,765.736 5142.43,753.428 5147.87,754.834 5153.31,769.165 5158.74,755.406 5164.18,764.285 5169.62,764.681 5175.06,771.626 5180.5,775.846 5185.94,763.318 5191.38,780.286 5196.82,766.176 5202.26,766.088 5207.7,752.109 5213.14,777.912 5218.58,767.231 5224.02,765.121 5229.46,770.264 5234.9,757.736 5240.34,774.879 5245.78,771.495 5251.22,768.901 5256.66,759.318 5262.1,768.813 5267.54,766.22 5272.98,771.582 5278.41,788.858 5283.85,772.637 5289.29,775.934 5294.73,787.847 5300.17,768.989 5305.61,760.593 5311.05,782.66 5316.49,780.198 5321.93,769.121 5327.37,783.891 5332.81,776.11 5338.25,789.166 5343.69,788.155 5349.13,769.428 5354.57,784.902 5360.01,782.396 5365.45,777.429 5370.89,773.648 5376.33,781.605 5381.77,776.11 5387.21,787.847 5392.65,781.869 5398.08,780.946 5403.52,773.253 5408.96,780.022 5414.4,785.693 5419.84,786.528 5425.28,781.077 5430.72,777.824 5436.16,774.967 5441.6,774.923 5447.04,787.759 5452.48,782.968 5457.92,792.946 5463.36,789.385 5468.8,782.22 5474.24,789.166 5479.68,777.605 5485.12,789.21 5490.56,791.847 5496,781.781 5501.44,812.024 5506.88,823.189 5512.32,813.65 5517.76,816.508 5523.19,827.981 5528.63,809.65 5534.07,817.299 5539.51,822.97 5544.95,819.013 5550.39,815.497 5555.83,806.441 5561.27,820.684 5566.71,821.299 5572.15,826.838 5577.59,814.398 5583.03,821.343 5588.47,818.354 5593.91,814.222 5599.35,829.915 5604.79,821.651 5610.23,815.321 5615.67,812.068 5621.11,820.508 5626.55,815.101 5631.99,811.189 5637.43,816.376 5642.86,836.157 5648.3,816.991 5653.74,842.311 5659.18,835.542 5664.62,836.201 5670.06,831.805 5675.5,830.267 5680.94,839.718 5686.38,824.332 5691.82,838.794 5697.26,833.344 5702.7,830.838 5708.14,840.904 5713.58,832.508 5719.02,837.652 5724.46,848.553 5729.9,837.52 5735.34,843.806 5740.78,842.487 5746.22,847.278 5751.66,840.597 5757.1,844.553 5762.53,846.795 5767.97,840.333 5773.41,849.3 5778.85,850.18 5784.29,853.037 5789.73,845.696 "></polyline>
<polyline clip-path="url(#clip272)" style="stroke:#3da44d; stroke-linecap:round; stroke-linejoin:round; stroke-width:4; stroke-opacity:1; fill:none" points="355.622,478.25 361.061,432.753 366.501,400.795 371.94,399.608 377.38,353.584 382.819,370.64 388.259,374.904 393.698,360.266 399.138,342.99 404.578,333.759 410.017,333.451 415.457,320.923 420.896,356.046 426.336,325.539 431.775,335.254 437.215,331.693 442.654,317.626 448.094,307.824 453.533,318.198 458.973,281.844 464.413,304.966 469.852,305.977 475.292,288.57 480.731,301.889 486.171,273.844 491.61,310.681 497.05,314.154 502.489,314.461 507.929,319.78 513.369,299.428 518.808,328.44 524.248,300.395 529.687,320.176 535.127,283.998 540.566,311.384 546.006,271.954 551.445,290.68 556.885,312.967 562.324,268.877 567.764,295.34 573.204,310.637 578.643,259.514 584.083,280.262 589.522,292.878 594.962,326.594 600.401,267.646 605.841,282.636 611.28,301.538 616.72,301.318 622.16,233.754 627.599,276.613 633.039,281.932 638.478,313.055 643.918,313.494 649.357,344.045 654.797,260.876 660.236,278.284 665.676,283.603 671.115,309.626 676.555,317.451 681.995,330.77 687.434,340.485 692.874,231.776 698.313,259.206 703.753,278.064 709.192,289.361 714.632,303.824 720.071,298.636 725.511,326.946 730.951,322.77 736.39,361.365 741.83,233.578 747.269,246.458 752.709,268.877 758.148,276.657 763.588,279.471 769.027,289.581 774.467,306.109 779.907,318.198 785.346,317.714 790.786,324.923 796.225,335.737 801.665,334.199 807.104,261.624 812.544,253.316 817.983,277.537 823.423,269.888 828.862,292.746 834.302,285.185 839.742,301.538 845.181,299.691 850.621,310.022 856.06,315.692 861.5,327.957 866.939,317.275 872.379,342.551 877.818,344.265 883.258,348.133 888.698,357.057 894.137,198.544 899.577,247.425 905.016,261.14 910.456,262.503 915.895,273.053 921.335,284.042 926.774,286.284 932.214,295.296 937.653,293.801 943.093,312.22 948.533,306.549 953.972,319.736 959.412,322.506 964.851,336.484 970.291,334.506 975.73,346.683 981.17,329.363 986.609,357.145 992.049,365.277 997.489,370.684 1002.93,372.882 1008.37,369.981 1013.81,400.971 1019.25,397.454 1024.69,405.85 1030.13,202.456 1035.57,235.117 1041,243.073 1046.44,246.59 1051.88,255.206 1057.32,258.942 1062.76,252.876 1068.2,260.041 1073.64,273.097 1079.08,285.405 1084.52,279.998 1089.96,288.218 1095.4,291.339 1100.84,299.208 1106.28,294.856 1111.72,322.022 1117.16,318.418 1122.6,324.264 1128.04,316.088 1133.48,332.396 1138.92,337.012 1144.36,335.693 1149.8,349.232 1155.24,357.189 1160.68,375.036 1166.11,361.936 1171.55,367.827 1176.99,369.849 1182.43,367.563 1187.87,379.871 1193.31,380.706 1198.75,381.322 1204.19,396.487 1209.63,406.422 1215.07,408.752 1220.51,410.334 1225.95,408.268 1231.39,418.466 1236.83,422.203 1242.27,427.214 1247.71,430.511 1253.15,447.171 1258.59,265.668 1264.03,244.7 1269.47,261.931 1274.91,270.064 1280.35,280.482 1285.78,268.701 1291.22,274.855 1296.66,273.229 1302.1,278.24 1307.54,267.646 1312.98,293.186 1318.42,272.745 1323.86,291.515 1329.3,295.384 1334.74,304.087 1340.18,309.011 1345.62,305.846 1351.06,314.725 1356.5,299.955 1361.94,313.45 1367.38,310.593 1372.82,325.099 1378.26,326.11 1383.7,314.725 1389.14,326.462 1394.58,327.473 1400.02,339.166 1405.45,340.748 1410.89,338.594 1416.33,350.155 1421.77,356.749 1427.21,349.76 1432.65,349.232 1438.09,364.486 1443.53,360.574 1448.97,358.288 1454.41,365.101 1459.85,377.893 1465.29,369.321 1470.73,374.025 1476.17,373.19 1481.61,364.354 1487.05,393.059 1492.49,399.257 1497.93,391.608 1503.37,400.883 1508.81,397.894 1514.25,404.312 1519.69,404.136 1525.12,413.235 1530.56,405.147 1536,413.411 1541.44,419.346 1546.88,419.39 1552.32,420.445 1557.76,415.653 1563.2,431.346 1568.64,432.137 1574.08,425.104 1579.52,418.071 1584.96,426.379 1590.4,457.941 1595.84,458.424 1601.28,446.688 1606.72,449.237 1612.16,457.457 1617.6,462.996 1623.04,456.842 1628.48,472.183 1633.92,453.721 1639.36,472.095 1644.8,458.6 1650.23,466.776 1655.67,470.337 1661.11,475.656 1666.55,479.656 1671.99,474.997 1677.43,491.437 1682.87,486.558 1688.31,484.008 1693.75,484.887 1699.19,493.107 1704.63,493.679 1710.07,163.377 1715.51,228.743 1720.95,239.601 1726.39,249.491 1731.83,239.073 1737.27,246.458 1742.71,255.953 1748.15,243.205 1753.59,252.568 1759.03,256.261 1764.47,252.524 1769.9,255.909 1775.34,259.074 1780.78,263.953 1786.22,260.832 1791.66,260.085 1797.1,266.855 1802.54,263.514 1807.98,270.503 1813.42,265.404 1818.86,276.657 1824.3,278.152 1829.74,279.427 1835.18,292.087 1840.62,296.087 1846.06,297.801 1851.5,289.142 1856.94,291.867 1862.38,298.768 1867.82,311.252 1873.26,309.89 1878.7,308.527 1884.14,312.044 1889.57,316.879 1895.01,329.143 1900.45,327.429 1905.89,329.143 1911.33,329.407 1916.77,335.254 1922.21,339.21 1927.65,350.024 1933.09,342.331 1938.53,338.023 1943.97,330.067 1949.41,350.111 1954.85,342.243 1960.29,346.815 1965.73,352.529 1971.17,352.881 1976.61,361.145 1982.05,356.573 1987.49,363.035 1992.93,353.98 1998.37,365.98 2003.81,370.86 2009.24,372.706 2014.68,362.068 2020.12,374.464 2025.56,374.288 2031,379.08 2036.44,385.278 2041.88,387.652 2047.32,396.707 2052.76,394.377 2058.2,405.499 2063.64,393.63 2069.08,414.686 2074.52,414.466 2079.96,402.422 2085.4,414.862 2090.84,414.246 2096.28,418.554 2101.72,431.962 2107.16,421.544 2112.6,429.104 2118.04,433.192 2123.48,442.907 2128.92,434.247 2134.35,436.313 2139.79,437.149 2145.23,442.16 2150.67,449.765 2156.11,449.94 2161.55,452.974 2166.99,450.732 2172.43,461.853 2177.87,459.655 2183.31,453.765 2188.75,446.644 2194.19,456.49 2199.63,451.523 2205.07,459.304 2210.51,463.304 2215.95,450.952 2221.39,474.205 2226.83,456.051 2232.27,470.601 2237.71,476.887 2243.15,475.7 2248.59,462.161 2254.02,470.689 2259.46,468.139 2264.9,469.062 2270.34,489.195 2275.78,482.821 2281.22,465.941 2286.66,480.404 2292.1,485.986 2297.54,494.426 2302.98,487.832 2308.42,503.218 2313.86,502.91 2319.3,489.767 2324.74,501.855 2330.18,507.789 2335.62,501.372 2341.06,506.91 2346.5,504.58 2351.94,510.559 2357.38,506.251 2362.82,511.042 2368.26,515.262 2373.69,514.075 2379.13,510.954 2384.57,498.163 2390.01,513.592 2395.45,517.636 2400.89,502.602 2406.33,520.449 2411.77,519.966 2417.21,521.065 2422.65,527.659 2428.09,527.175 2433.53,517.636 2438.97,530.164 2444.41,530.867 2449.85,540.494 2455.29,523.043 2460.73,535.307 2466.17,540.45 2471.61,544.099 2477.05,533.945 2482.49,536.934 2487.93,531.791 2493.36,554.385 2498.8,532.406 2504.24,531.087 2509.68,538.296 2515.12,534.912 2520.56,543.352 2526,529.417 2531.44,548.055 2536.88,549.33 2542.32,547.923 2547.76,540.846 2553.2,540.275 2558.64,545.506 2564.08,556.671 2569.52,560.1 2574.96,564.232 2580.4,554.781 2585.84,550.824 2591.28,550.253 2596.72,547.572 2602.16,561.067 2607.6,547.132 2613.04,551.704 2618.47,631.883 2623.91,636.323 2629.35,627.795 2634.79,626.081 2640.23,617.113 2645.67,623.443 2651.11,626.828 2656.55,636.191 2661.99,626.652 2667.43,630.125 2672.87,630.257 2678.31,640.367 2683.75,632.806 2689.19,641.95 2694.63,622.125 2700.07,633.422 2705.51,636.675 2710.95,634.257 2716.39,644.236 2721.83,651.489 2727.27,645.291 2732.71,648.104 2738.14,659.973 2743.58,645.159 2749.02,654.258 2754.46,666.391 2759.9,643.225 2765.34,652.06 2770.78,646.785 2776.22,634.081 2781.66,665.687 2787.1,644.983 2792.54,640.455 2797.98,642.038 2803.42,643.928 2808.86,655.885 2814.3,663.182 2819.74,640.367 2825.18,657.115 2830.62,670.654 2836.06,658.302 2841.5,652.939 2846.94,652.763 2852.38,638.697 2857.81,653.818 2863.25,656.412 2868.69,663.753 2874.13,650.258 2879.57,677.336 2885.01,689.161 2890.45,682.875 2895.89,682.831 2901.33,680.941 2906.77,685.732 2912.21,682.787 2917.65,670.567 2923.09,692.897 2928.53,688.941 2933.97,700.634 2939.41,684.325 2944.85,684.15 2950.29,678.787 2955.73,692.546 2961.17,673.336 2966.61,693.249 2972.05,673.951 2977.48,692.458 2982.92,700.282 2988.36,704.282 2993.8,703.887 2999.24,692.194 3004.68,702.832 3010.12,700.722 3015.56,706.788 3021,689.556 3026.44,687.578 3031.88,688.501 3037.32,706.744 3042.76,703.271 3048.2,704.634 3053.64,709.645 3059.08,705.513 3064.52,709.733 3069.96,141.266 3075.4,332.968 3080.84,330.33 3086.28,335.078 3091.72,331.781 3097.16,333.144 3102.59,329.056 3108.03,327.561 3113.47,329.935 3118.91,335.429 3124.35,340.045 3129.79,346.243 3135.23,325.143 3140.67,320.923 3146.11,334.99 3151.55,323.517 3156.99,333.671 3162.43,329.099 3167.87,341.54 3173.31,323.649 3178.75,339.825 3184.19,331.913 3189.63,337.276 3195.07,339.562 3200.51,335.605 3205.95,328.352 3211.39,332.045 3216.83,341.056 3222.26,337.583 3227.7,340.704 3233.14,338.902 3238.58,333.759 3244.02,335.386 3249.46,343.562 3254.9,328.001 3260.34,328.001 3265.78,338.419 3271.22,348.881 3276.66,355.035 3282.1,352.969 3287.54,352.661 3292.98,340.836 3298.42,351.166 3303.86,340.441 3309.3,353.98 3314.74,356.134 3320.18,363.914 3325.62,363.519 3331.06,356.573 3336.5,360.969 3341.93,344.705 3347.37,373.981 3352.81,355.826 3358.25,351.914 3363.69,359.343 3369.13,369.849 3374.57,364.222 3380.01,362.42 3385.45,362.244 3390.89,377.278 3396.33,375.475 3401.77,369.233 3407.21,366.728 3412.65,370.068 3418.09,377.893 3423.53,369.101 3428.97,370.948 3434.41,371.695 3439.85,367.563 3445.29,359.299 3450.73,362.596 3456.17,384.97 3461.6,372.398 3467.04,388.223 3472.48,375.871 3477.92,367.387 3483.36,373.717 3488.8,377.761 3494.24,370.244 3499.68,384.794 3505.12,386.597 3510.56,376.618 3516,389.146 3521.44,384.003 3526.88,387.52 3532.32,378.596 3537.76,384.531 3543.2,379.256 3548.64,378.113 3554.08,375.475 3559.52,383.168 3564.96,404.883 3570.4,394.641 3575.84,400.048 3581.28,412.664 3586.71,403.521 3592.15,414.862 3597.59,399.257 3603.03,407.916 3608.47,403.213 3613.91,413.499 3619.35,413.235 3624.79,393.498 3630.23,404.576 3635.67,414.598 3641.11,420.225 3646.55,411.917 3651.99,408.928 3657.43,415.653 3662.87,411.917 3668.31,418.071 3673.75,421.016 3679.19,409.015 3684.63,421.28 3690.07,421.148 3695.51,415.082 3700.95,427.61 3706.38,410.95 3711.82,421.236 3717.26,419.697 3722.7,426.159 3728.14,433.5 3733.58,418.818 3739.02,419.434 3744.46,423.214 3749.9,420.401 3755.34,462.293 3760.78,449.765 3766.22,465.634 3771.66,458.205 3777.1,460.49 3782.54,455.084 3787.98,477.414 3793.42,476.359 3798.86,470.952 3804.3,468.711 3809.74,475.26 3815.18,473.634 3820.62,463.831 3826.05,474.953 3831.49,480.711 3836.93,482.777 3842.37,475.348 3847.81,478.865 3853.25,477.898 3858.69,493.063 3864.13,475.172 3869.57,480.887 3875.01,467.216 3880.45,489.591 3885.89,475.172 3891.33,496.888 3896.77,501.24 3902.21,481.019 3907.65,503.613 3913.09,499.833 3918.53,504.405 3923.97,484.228 3929.41,515.834 3934.85,489.767 3940.29,503.042 3945.72,504.185 3951.16,509.24 3956.6,502.471 3962.04,512.625 3967.48,503.965 3972.92,501.987 3978.36,494.118 3983.8,506.647 3989.24,507.877 3994.68,507.042 4000.12,497.283 4005.56,505.767 4011,511.262 4016.44,494.25 4021.88,492.8 4027.32,500.009 4032.76,510.603 4038.2,496.404 4043.64,506.866 4049.08,509.592 4054.52,497.503 4059.96,503.086 4065.4,502.734 4070.83,502.602 4076.27,514.735 4081.71,514.207 4087.15,515.966 4092.59,505.723 4098.03,506.954 4103.47,506.998 4108.91,518.208 4114.35,508.185 4119.79,520.977 4125.23,514.119 4130.67,514.911 4136.11,521.592 4141.55,516.054 4146.99,528.362 4152.43,520.625 4157.87,513.636 4163.31,504.8 4168.75,521.109 4174.19,514.647 4179.63,507.13 4185.07,521.065 4190.5,512.889 4195.94,502.778 4201.38,510.119 4206.82,511.218 4212.26,523.087 4217.7,515.834 4223.14,522.999 4228.58,521.944 4234.02,515.702 4239.46,532.934 4244.9,534.692 4250.34,520.01 4255.78,527.922 4261.22,520.318 4266.66,529.769 4272.1,527.615 4277.54,522.735 4282.98,551 4288.42,553.462 4293.86,552.187 4299.3,550.824 4304.74,562.298 4310.17,556.891 4315.61,547.528 4321.05,568.012 4326.49,559.352 4331.93,549.154 4337.37,561.418 4342.81,543.967 4348.25,550.868 4353.69,552.275 4359.13,544.978 4364.57,559.704 4370.01,555.528 4375.45,556.539 4380.89,556.099 4386.33,554.121 4391.77,547.835 4397.21,543.264 4402.65,562.254 4408.09,546.385 4413.53,547.923 4418.97,550.121 4424.41,564.495 4429.84,554.473 4435.28,559.748 4440.72,558.253 4446.16,553.418 4451.6,567.133 4457.04,566.957 4462.48,568.408 4467.92,556.363 4473.36,550.605 4478.8,561.199 4484.24,560.012 4489.68,553.946 4495.12,564.1 4500.56,567.441 4506,572.1 4511.44,580.848 4516.88,547.308 4522.32,578.826 4527.76,565.507 4533.2,569.683 4538.64,570.254 4544.08,570.034 4549.52,561.902 4554.95,572.232 4560.39,576.628 4565.83,570.034 4571.27,577.771 4576.71,572.144 4582.15,590.914 4587.59,581.331 4593.03,570.474 4598.47,570.694 4603.91,584.804 4609.35,577.243 4614.79,587.354 4620.23,576.892 4625.67,573.419 4631.11,578.079 4636.55,592.365 4641.99,580.452 4647.43,582.65 4652.87,582.606 4658.31,600.058 4663.75,583.178 4669.19,572.232 4674.62,584.936 4680.06,581.375 4685.5,596.497 4690.94,589.991 4696.38,598.255 4701.82,585.771 4707.26,587.574 4712.7,580.276 4718.14,590.431 4723.58,587.222 4729.02,588.892 4734.46,586.65 4739.9,586.562 4745.34,587.046 4750.78,593.332 4756.22,600.365 4761.66,598.783 4767.1,577.639 4772.54,672.984 4777.98,689.688 4783.42,677.732 4788.86,683.798 4794.29,691.007 4799.73,680.589 4805.17,679.27 4810.61,679.754 4816.05,680.985 4821.49,685.6 4826.93,683.666 4832.37,692.765 4837.81,694.04 4843.25,700.502 4848.69,689.556 4854.13,688.062 4859.57,686.304 4865.01,690.831 4870.45,696.062 4875.89,688.809 4881.33,695.623 4886.77,683.095 4892.21,689.644 4897.65,700.546 4903.09,691.886 4908.53,700.722 4913.96,683.622 4919.4,686.479 4924.84,688.853 4930.28,692.765 4935.72,697.425 4941.16,701.953 4946.6,691.623 4952.04,698.788 4957.48,699.975 4962.92,695.667 4968.36,712.019 4973.8,702.304 4979.24,716.986 4984.68,704.546 4990.12,714.349 4995.56,714.393 5001,710.085 5006.44,704.195 5011.88,710.437 5017.32,718.129 5022.76,708.854 5028.2,706.041 5033.64,707.887 5039.07,720.503 5044.51,709.513 5049.95,712.722 5055.39,704.326 5060.83,713.382 5066.27,713.602 5071.71,715.36 5077.15,709.909 5082.59,718.217 5088.03,718.393 5093.47,721.382 5098.91,718.217 5104.35,720.899 5109.79,711.887 5115.23,726.525 5120.67,712.942 5126.11,722.086 5131.55,733.339 5136.99,716.723 5142.43,714.261 5147.87,709.382 5153.31,722.042 5158.74,715.668 5164.18,729.383 5169.62,725.866 5175.06,729.427 5180.5,723.053 5185.94,714.657 5191.38,714.657 5196.82,735.888 5202.26,734.877 5207.7,725.031 5213.14,723.448 5218.58,715.843 5224.02,719.052 5229.46,734.218 5234.9,731.756 5240.34,736.943 5245.78,721.25 5251.22,727.932 5256.66,732.46 5262.1,723.976 5267.54,719.14 5272.98,716.371 5278.41,713.865 5283.85,775.934 5289.29,762.483 5294.73,779.539 5300.17,783.056 5305.61,780.682 5311.05,776.33 5316.49,775.099 5321.93,769.604 5327.37,776.901 5332.81,773.429 5338.25,777.824 5343.69,778.484 5349.13,771.187 5354.57,786.089 5360.01,791.803 5365.45,783.979 5370.89,783.012 5376.33,776.769 5381.77,782.66 5387.21,779.275 5392.65,786.133 5398.08,782.924 5403.52,782.001 5408.96,790.44 5414.4,799.276 5419.84,784.902 5425.28,792.99 5430.72,798.836 5436.16,790.572 5441.6,781.077 5447.04,789.517 5452.48,788.199 5457.92,793.342 5463.36,793.122 5468.8,799.672 5474.24,783.056 5479.68,791.539 5485.12,784.242 5490.56,783.891 5496,784.462 5501.44,794.617 5506.88,791.935 5512.32,793.869 5517.76,785.165 5523.19,792.463 5528.63,790.924 5534.07,794.617 5539.51,823.717 5544.95,810.354 5550.39,815.057 5555.83,816.332 5561.27,818.046 5566.71,819.673 5572.15,815.101 5577.59,823.849 5583.03,836.289 5588.47,820.068 5593.91,818.662 5599.35,817.739 5604.79,824.772 5610.23,821.211 5615.67,828.596 5621.11,809.079 5626.55,827.409 5631.99,817.519 5637.43,823.101 5642.86,831.937 5648.3,828.157 5653.74,834.399 5659.18,824.684 5664.62,827.453 5670.06,839.674 5675.5,837.3 5680.94,839.41 5686.38,837.739 5691.82,833.432 5697.26,829.739 5702.7,832.904 5708.14,841.036 5713.58,826.97 5719.02,841.212 5724.46,833.563 5729.9,840.729 5735.34,848.905 5740.78,840.245 5746.22,853.037 5751.66,838.926 5757.1,837.388 5762.53,852.29 5767.97,850.795 5773.41,845.916 5778.85,846.575 5784.29,845.432 5789.73,858.048 "></polyline>
<path clip-path="url(#clip270)" d="M5131.73 2976.36 L5760.75 2976.36 L5760.75 2769 L5131.73 2769  Z" fill="#ffffff" fill-rule="evenodd" fill-opacity="1"></path>
<polyline clip-path="url(#clip270)" style="stroke:#000000; stroke-linecap:round; stroke-linejoin:round; stroke-width:4; stroke-opacity:1; fill:none" points="5131.73,2976.36 5760.75,2976.36 5760.75,2769 5131.73,2769 5131.73,2976.36 "></polyline>
<polyline clip-path="url(#clip270)" style="stroke:#009af9; stroke-linecap:round; stroke-linejoin:round; stroke-width:4; stroke-opacity:1; fill:none" points="5195.73,2820.84 5579.74,2820.84 "></polyline>
<path clip-path="url(#clip270)" d="M5657.58 2840.52 Q5655.78 2845.15 5654.06 2846.57 Q5652.35 2847.98 5649.48 2847.98 L5646.08 2847.98 L5646.08 2844.41 L5648.58 2844.41 Q5650.34 2844.41 5651.31 2843.58 Q5652.28 2842.75 5653.46 2839.64 L5654.23 2837.7 L5643.74 2812.19 L5648.25 2812.19 L5656.36 2832.47 L5664.46 2812.19 L5668.97 2812.19 L5657.58 2840.52 Z" fill="#000000" fill-rule="nonzero" fill-opacity="1"></path><path clip-path="url(#clip270)" d="M5676.26 2834.18 L5683.9 2834.18 L5683.9 2807.82 L5675.59 2809.48 L5675.59 2805.22 L5683.86 2803.56 L5688.53 2803.56 L5688.53 2834.18 L5696.17 2834.18 L5696.17 2838.12 L5676.26 2838.12 L5676.26 2834.18 Z" fill="#000000" fill-rule="nonzero" fill-opacity="1"></path><polyline clip-path="url(#clip270)" style="stroke:#e26f46; stroke-linecap:round; stroke-linejoin:round; stroke-width:4; stroke-opacity:1; fill:none" points="5195.73,2872.68 5579.74,2872.68 "></polyline>
<path clip-path="url(#clip270)" d="M5657.58 2892.36 Q5655.78 2896.99 5654.06 2898.41 Q5652.35 2899.82 5649.48 2899.82 L5646.08 2899.82 L5646.08 2896.25 L5648.58 2896.25 Q5650.34 2896.25 5651.31 2895.42 Q5652.28 2894.59 5653.46 2891.48 L5654.23 2889.54 L5643.74 2864.03 L5648.25 2864.03 L5656.36 2884.31 L5664.46 2864.03 L5668.97 2864.03 L5657.58 2892.36 Z" fill="#000000" fill-rule="nonzero" fill-opacity="1"></path><path clip-path="url(#clip270)" d="M5679.48 2886.02 L5695.8 2886.02 L5695.8 2889.96 L5673.86 2889.96 L5673.86 2886.02 Q5676.52 2883.27 5681.1 2878.64 Q5685.71 2873.98 5686.89 2872.64 Q5689.13 2870.12 5690.01 2868.38 Q5690.92 2866.62 5690.92 2864.93 Q5690.92 2862.18 5688.97 2860.44 Q5687.05 2858.71 5683.95 2858.71 Q5681.75 2858.71 5679.3 2859.47 Q5676.86 2860.23 5674.09 2861.78 L5674.09 2857.06 Q5676.91 2855.93 5679.36 2855.35 Q5681.82 2854.77 5683.86 2854.77 Q5689.23 2854.77 5692.42 2857.46 Q5695.61 2860.14 5695.61 2864.63 Q5695.61 2866.76 5694.8 2868.68 Q5694.02 2870.58 5691.91 2873.17 Q5691.33 2873.84 5688.23 2877.06 Q5685.13 2880.26 5679.48 2886.02 Z" fill="#000000" fill-rule="nonzero" fill-opacity="1"></path><polyline clip-path="url(#clip270)" style="stroke:#3da44d; stroke-linecap:round; stroke-linejoin:round; stroke-width:4; stroke-opacity:1; fill:none" points="5195.73,2924.52 5579.74,2924.52 "></polyline>
<path clip-path="url(#clip270)" d="M5657.58 2944.2 Q5655.78 2948.83 5654.06 2950.25 Q5652.35 2951.66 5649.48 2951.66 L5646.08 2951.66 L5646.08 2948.09 L5648.58 2948.09 Q5650.34 2948.09 5651.31 2947.26 Q5652.28 2946.43 5653.46 2943.32 L5654.23 2941.38 L5643.74 2915.87 L5648.25 2915.87 L5656.36 2936.15 L5664.46 2915.87 L5668.97 2915.87 L5657.58 2944.2 Z" fill="#000000" fill-rule="nonzero" fill-opacity="1"></path><path clip-path="url(#clip270)" d="M5689.62 2923.16 Q5692.98 2923.88 5694.85 2926.15 Q5696.75 2928.42 5696.75 2931.75 Q5696.75 2936.87 5693.23 2939.67 Q5689.71 2942.47 5683.23 2942.47 Q5681.05 2942.47 5678.74 2942.03 Q5676.45 2941.61 5673.99 2940.75 L5673.99 2936.24 Q5675.94 2937.37 5678.25 2937.95 Q5680.57 2938.53 5683.09 2938.53 Q5687.49 2938.53 5689.78 2936.8 Q5692.1 2935.06 5692.1 2931.75 Q5692.1 2928.69 5689.94 2926.98 Q5687.81 2925.25 5683.99 2925.25 L5679.97 2925.25 L5679.97 2921.4 L5684.18 2921.4 Q5687.63 2921.4 5689.46 2920.04 Q5691.29 2918.65 5691.29 2916.06 Q5691.29 2913.39 5689.39 2911.98 Q5687.51 2910.55 5683.99 2910.55 Q5682.07 2910.55 5679.87 2910.96 Q5677.67 2911.38 5675.04 2912.26 L5675.04 2908.09 Q5677.7 2907.35 5680.01 2906.98 Q5682.35 2906.61 5684.41 2906.61 Q5689.74 2906.61 5692.84 2909.04 Q5695.94 2911.45 5695.94 2915.57 Q5695.94 2918.44 5694.3 2920.43 Q5692.65 2922.4 5689.62 2923.16 Z" fill="#000000" fill-rule="nonzero" fill-opacity="1"></path></svg>